STARTFONT 2.1
FONT -HP-Batang-Bold-R-Normal--48-480-75-75-C-240-KSC5636.1989-0
SIZE 48 75 75
FONTBOUNDINGBOX 24 48 0 -6

STARTPROPERTIES 23
FONTNAME_REGISTRY ""
FOUNDRY "HP"
FAMILY_NAME "Batang"
WEIGHT_NAME "Bold"
SLANT "R"
SETWIDTH_NAME "Normal"
ADD_STYLE_NAME ""
PIXEL_SIZE 48
POINT_SIZE 480
RESOLUTION_X 75
RESOLUTION_Y 75
SPACING "C"
AVERAGE_WIDTH 240
CHARSET_REGISTRY "KSC5636.1989"
CHARSET_ENCODING "0"
COPYRIGHT "Copyright (c) 1994 Samsung Hewlett-Packard Company."
WEIGHT 200
X_HEIGHT 42
QUAD_WIDTH 24
_HP_ASXVERSION "@(#) ASX 3.00 $Revision: 13.9 $ batB48a"
DEFAULT_CHAR 32
FONT_DESCENT 6
FONT_ASCENT 42
ENDPROPERTIES

CHARS 256

STARTCHAR CODE000
ENCODING 0
SWIDTH 451 0
DWIDTH 24 0
BBX 24 48 0 -6
BITMAP
000000
000000
000000
000000
000000
000000
000000
000000
000000
000000
000000
000000
000000
000000
000000
000000
000000
000000
000000
000000
000000
000000
000000
000000
000000
000000
000000
000000
000000
000000
000000
000000
000000
000000
000000
000000
000000
000000
000000
000000
000000
000000
000000
000000
000000
000000
000000
000000
ENDCHAR

STARTCHAR CODE001
ENCODING 1
SWIDTH 451 0
DWIDTH 24 0
BBX 24 48 0 -6
BITMAP
000000
000000
000000
00FF00
03FFC0
07C3E0
0F00F0
1E0078
1C0038
38001C
38001C
70000E
7381CE
67C3E6
E7C3E7
E7C3E7
E7C3E7
C381C3
C00003
C00003
C00003
C00003
CC0033
CC0033
EE0077
EE0077
E700E7
67C3E6
73FFCE
71FF8E
387E1C
38001C
1C0038
1E0078
0F00F0
07C3E0
03FFC0
00FF00
000000
000000
000000
000000
000000
000000
000000
000000
000000
000000
ENDCHAR

STARTCHAR CODE002
ENCODING 2
SWIDTH 451 0
DWIDTH 24 0
BBX 24 48 0 -6
BITMAP
000000
000000
000000
00FF00
03FFC0
07FFE0
0FFFF0
1FFFF8
1FFFF8
3FFFFC
3FFFFC
7FFFFE
7FFFFE
7EFF7E
FC7E3F
FC7E3F
FEFF7F
FFFFFF
FFFFFF
FFFFFF
FFFFFF
FFFFFF
FFFFFF
FFFFFF
FFFFFF
FFFFFF
FFFFFF
7FFFFE
7F7EFE
7FC3FE
3FFFFC
3FFFFC
1FFFF8
1FFFF8
0FFFF0
07FFE0
03FFC0
00FF00
000000
000000
000000
000000
000000
000000
000000
000000
000000
000000
ENDCHAR

STARTCHAR CODE003
ENCODING 3
SWIDTH 451 0
DWIDTH 24 0
BBX 24 48 0 -6
BITMAP
000000
000000
0F81F0
1FC3F8
3FE7FC
3FE7FC
7FFFFE
7FFFFE
7FFFFE
FFFFFF
FFFFFF
FFFFFF
FFFFFF
FFFFFF
FFFFFF
FFFFFF
FFFFFF
FFFFFF
FFFFFF
7FFFFE
7FFFFE
7FFFFE
3FFFFC
3FFFFC
3FFFFC
1FFFF8
1FFFF8
1FFFF8
0FFFF0
0FFFF0
07FFE0
07FFE0
03FFC0
03FFC0
01FF80
01FF80
00FF00
00FF00
007E00
007E00
003C00
003C00
001800
001800
000000
000000
000000
000000
ENDCHAR

STARTCHAR CODE004
ENCODING 4
SWIDTH 451 0
DWIDTH 24 0
BBX 24 48 0 -6
BITMAP
001800
003C00
003C00
007E00
007E00
00FF00
00FF00
01FF80
01FF80
03FFC0
03FFC0
07FFE0
07FFE0
0FFFF0
0FFFF0
1FFFF8
1FFFF8
3FFFFC
3FFFFC
7FFFFE
7FFFFE
FFFFFF
FFFFFF
7FFFFE
7FFFFE
3FFFFC
3FFFFC
1FFFF8
1FFFF8
0FFFF0
0FFFF0
07FFE0
07FFE0
03FFC0
03FFC0
01FF80
01FF80
00FF00
00FF00
007E00
007E00
003C00
003C00
001800
000000
000000
000000
000000
ENDCHAR

STARTCHAR CODE005
ENCODING 5
SWIDTH 451 0
DWIDTH 24 0
BBX 24 48 0 -6
BITMAP
000000
000000
003C00
00FF00
01FF80
03FFC0
03FFC0
07FFE0
07FFE0
07FFE0
07FFE0
07FFE0
07FFE0
07FFE0
03FFC0
03FFC0
07FFE0
1FFFF8
3FFFFC
3FFFFC
7FFFFE
7FFFFE
FFFFFF
FFFFFF
FFFFFF
FFFFFF
FFFFFF
FFFFFF
FFFFFF
FFFFFF
FFFFFF
7FFFFE
7FFFFE
3FFFFC
1FBDF8
003C00
003C00
003C00
003C00
007E00
007E00
00FF00
01FF80
01FF80
000000
000000
000000
000000
ENDCHAR

STARTCHAR CODE006
ENCODING 6
SWIDTH 451 0
DWIDTH 24 0
BBX 24 48 0 -6
BITMAP
000000
001800
001800
003C00
003C00
007E00
007E00
00FF00
00FF00
01FF80
01FF80
03FFC0
03FFC0
07FFE0
07FFE0
0FFFF0
0FFFF0
1FFFF8
1FFFF8
3FFFFC
3FFFFC
7FFFFE
7FFFFE
7FFFFE
FFFFFF
FFFFFF
FFFFFF
FFFFFF
FFFFFF
FFFFFF
FFFFFF
FFFFFF
FFFFFF
7FFFFE
7FFFFE
3FBDFC
1F3CF8
007E00
007E00
007E00
00FF00
00FF00
01FF80
01FF80
000000
000000
000000
000000
ENDCHAR

STARTCHAR CODE007
ENCODING 7
SWIDTH 451 0
DWIDTH 24 0
BBX 24 48 0 -6
BITMAP
000000
000000
000000
000000
000000
000000
000000
000000
000000
000000
000000
000000
000000
00FF00
03FFC0
07FFE0
0FFFF0
1FFFF8
1FFFF8
3FFFFC
3FFFFC
3FFFFC
3FFFFC
3FFFFC
3FFFFC
3FFFFC
3FFFFC
1FFFF8
1FFFF8
0FFFF0
07FFE0
03FFC0
00FF00
000000
000000
000000
000000
000000
000000
000000
000000
000000
000000
000000
000000
000000
000000
000000
ENDCHAR

STARTCHAR CODE008
ENCODING 8
SWIDTH 451 0
DWIDTH 24 0
BBX 24 48 0 -6
BITMAP
000000
000000
000000
000000
000000
FFFFFF
FFFFFF
FFFFFF
FFFFFF
FFFFFF
FFFFFF
FFFFFF
FFFFFF
FFC7FF
FF01FF
FE00FF
FE00FF
FC007F
FC007F
FC007F
F8003F
F8003F
F8003F
F8003F
F8003F
FC007F
FC007F
FC007F
FE00FF
FE00FF
FF01FF
FFC7FF
FFFFFF
FFFFFF
FFFFFF
FFFFFF
FFFFFF
FFFFFF
FFFFFF
FFFFFF
FFFFFF
000000
000000
000000
000000
000000
000000
000000
ENDCHAR

STARTCHAR CODE009
ENCODING 9
SWIDTH 451 0
DWIDTH 24 0
BBX 24 48 0 -6
BITMAP
000000
000000
000000
000000
000000
000000
000000
000000
000000
000000
000000
000000
000000
00FF00
03FFC0
07FFE0
0FC3F0
1F00F8
1E0078
3C003C
3C003C
38001C
38001C
38001C
38001C
3C003C
3C003C
1E0078
1F00F8
0FC3F0
07FFE0
03FFC0
00FF00
000000
000000
000000
000000
000000
000000
000000
000000
000000
000000
000000
000000
000000
000000
000000
ENDCHAR

STARTCHAR CODE010
ENCODING 10
SWIDTH 451 0
DWIDTH 24 0
BBX 24 48 0 -6
BITMAP
000000
000000
000000
000000
FFFFFF
FFFFFF
FFFFFF
FFFFFF
FFFFFF
FFFFFF
FFFFFF
FFFFFF
FFFFFF
FFFFFF
FFFFFF
FEFF7F
FFFFFF
FDFFBF
FDFFBF
FFFFFF
FBFFDF
FBFFDF
FBFFDF
FBFFDF
FBFFDF
FBFFDF
FFFFFF
FDFFBF
FDFFBF
FFFFFF
FEFF7F
FFFFFF
FFFFFF
FFFFFF
FFFFFF
FFFFFF
FFFFFF
FFFFFF
FFFFFF
FFFFFF
FFFFFF
FFFFFF
000000
000000
000000
000000
000000
000000
ENDCHAR

STARTCHAR CODE011
ENCODING 11
SWIDTH 451 0
DWIDTH 24 0
BBX 24 48 0 -6
BITMAP
000000
000000
000000
000003
00000F
00003F
0000FF
0003FF
000FFF
000FFF
00003F
00007F
000077
0000F7
0000E3
0001E3
0001C0
0003C0
000380
000780
000700
07FF00
1FFE00
3FFE00
7E3F00
780F00
F00780
F00780
E00380
E00380
E00380
F00780
F00780
780F00
7E3F00
3FFE00
1FFC00
07F000
000000
000000
000000
000000
000000
000000
000000
000000
000000
000000
ENDCHAR

STARTCHAR CODE012
ENCODING 12
SWIDTH 451 0
DWIDTH 24 0
BBX 24 48 0 -6
BITMAP
000000
000000
00FF00
03FFC0
07FFE0
0FC3F0
0F00F0
1E0078
1E0078
1C0038
1C0038
1C0038
1E0078
1E0078
0F00F0
0FC3F0
07FFE0
03FFC0
00FF00
001C00
001C00
001C00
001C00
001C00
001C00
FFFFFF
FFFFFF
FFFFFF
001C00
001C00
001C00
001C00
001C00
001C00
001C00
001C00
001C00
001C00
001C00
001C00
001C00
001C00
001C00
001C00
000000
000000
000000
000000
ENDCHAR

STARTCHAR CODE013
ENCODING 13
SWIDTH 451 0
DWIDTH 24 0
BBX 24 48 0 -6
BITMAP
000000
000000
000000
00E000
00F000
00F800
00FC00
00FE00
00FF00
00FF80
00FFC0
00FFE0
00EFF0
00E7F8
00E3FC
00E1FE
00E0FE
00E07F
00E03F
00E01F
00E01F
00E00F
00E00F
00E00F
00E00F
00E01E
00E01E
00E03C
00E03C
00E078
00E0F0
00E1E0
00E1C0
00E000
07E000
1FE000
3FE000
7FE000
7FC000
FFC000
FF8000
FF0000
7C0000
000000
000000
000000
000000
000000
ENDCHAR

STARTCHAR CODE014
ENCODING 14
SWIDTH 451 0
DWIDTH 24 0
BBX 24 48 0 -6
BITMAP
000000
000000
000007
00003F
0001FF
000FFF
007FFF
03FFFF
03FFF7
03FF87
03FC07
03E03F
0381FF
038FFF
03FFFF
03FFFF
03FFE7
03FF07
03F807
03C007
038007
038007
038007
038007
038007
038007
038007
038007
03800F
03803F
03807F
0380FF
0380FF
0781FE
1F81FE
3F81FC
7F81F8
7F80F0
FF0000
FF0000
FE0000
FC0000
780000
000000
000000
000000
000000
000000
ENDCHAR

STARTCHAR CODE015
ENCODING 15
SWIDTH 451 0
DWIDTH 24 0
BBX 24 48 0 -6
BITMAP
000000
001C00
001C00
001C00
001C00
001C00
601C06
F01C0F
F87E1F
7DFFBE
3FFFFC
1FE3F8
0F81F0
0F00F0
0F00F0
0E0070
0E0070
1E0078
1C0038
1C0038
1C0038
FC003F
FC003F
FC003F
1C0038
1C0038
1C0038
1E0078
0E0070
0E0070
0F0070
0F00F0
0781E0
0FE3F0
1FFFF8
3FFFFC
7C7E3E
F81C1F
F01C0F
601C06
001C00
001C00
001C00
001C00
001C00
000000
000000
000000
ENDCHAR

STARTCHAR CODE016
ENCODING 16
SWIDTH 451 0
DWIDTH 24 0
BBX 24 48 0 -6
BITMAP
000000
000000
000000
000000
C00000
E00000
F00000
FC0000
FE0000
FF0000
FF8000
FFE000
FFF000
FFF800
FFFC00
FFFF00
FFFF80
FFFFC0
FFFFE0
FFFFF8
FFFFFC
FFFFFE
FFFFFF
FFFFFF
FFFFFE
FFFFFC
FFFFF0
FFFFE0
FFFFC0
FFFF80
FFFF00
FFFC00
FFF800
FFF000
FFE000
FF8000
FF0000
FE0000
FC0000
F00000
E00000
C00000
000000
000000
000000
000000
000000
000000
ENDCHAR

STARTCHAR CODE017
ENCODING 17
SWIDTH 451 0
DWIDTH 24 0
BBX 24 48 0 -6
BITMAP
000000
000000
000000
000000
000003
000007
00000F
00003F
00007F
0000FF
0001FF
0007FF
000FFF
001FFF
003FFF
00FFFF
01FFFF
03FFFF
07FFFF
1FFFFF
3FFFFF
7FFFFF
FFFFFF
FFFFFF
7FFFFF
3FFFFF
0FFFFF
07FFFF
03FFFF
01FFFF
00FFFF
003FFF
001FFF
000FFF
0007FF
0001FF
0000FF
00007F
00003F
00000F
000007
000003
000000
000000
000000
000000
000000
000000
ENDCHAR

STARTCHAR CODE018
ENCODING 18
SWIDTH 451 0
DWIDTH 24 0
BBX 24 48 0 -6
BITMAP
000000
001800
003C00
007E00
00FF00
01FF80
03FFC0
07FFE0
0FBDF0
0E3C70
003C00
003C00
003C00
003C00
003C00
003C00
003C00
003C00
003C00
003C00
003C00
003C00
003C00
003C00
003C00
003C00
003C00
003C00
003C00
003C00
003C00
003C00
003C00
003C00
003C00
003C00
0E3C70
0FBDF0
07FFE0
03FFC0
01FF80
00FF00
007E00
003C00
001800
000000
000000
000000
ENDCHAR

STARTCHAR CODE019
ENCODING 19
SWIDTH 451 0
DWIDTH 24 0
BBX 24 48 0 -6
BITMAP
000000
000000
000000
000000
018180
03C3C0
03C3C0
03C3C0
03C3C0
03C3C0
03C3C0
03C3C0
03C3C0
03C3C0
03C3C0
03C3C0
03C3C0
03C3C0
03C3C0
03C3C0
03C3C0
03C3C0
03C3C0
03C3C0
03C3C0
018180
018180
018180
018180
000000
000000
000000
018180
03C3C0
03C3C0
03C3C0
03C3C0
018180
000000
000000
000000
000000
000000
000000
000000
000000
000000
000000
ENDCHAR

STARTCHAR CODE020
ENCODING 20
SWIDTH 451 0
DWIDTH 24 0
BBX 24 48 0 -6
BITMAP
000000
000000
03FFFF
0FFFFF
1FFFFF
3FFFFF
7F1E0F
7C1E0F
F81E0F
F81E0F
F01E0F
F01E0F
F01E0F
F01E0F
F81E0F
F81E0F
7C1E0F
7F1E0F
3FFE0F
1FFE0F
0FFE0F
03FE0F
001E0F
001E0F
001E0F
001E0F
001E0F
001E0F
001E0F
001E0F
001E0F
001E0F
001E0F
001E0F
001E0F
001E0F
001E0F
001E0F
001E0F
001E0F
001E0F
001E0F
001E0F
001E0F
000000
000000
000000
000000
ENDCHAR

STARTCHAR CODE021
ENCODING 21
SWIDTH 451 0
DWIDTH 24 0
BBX 24 48 0 -6
BITMAP
000000
000000
000000
000000
01FF1C
07FFDC
0FFFFC
1FC3FC
1F00FC
3E007C
3E003C
3C001C
3C001C
3EFC0C
3FFF0C
3FFF80
1FC780
1FE3C0
0FF9C0
07FFC0
07FFC0
077FE0
079FF0
03C7F8
03FFFC
01FFFC
007E7E
60003E
60003E
70001E
70001E
78003E
7C003C
7F007C
7FC1F8
7FFFF0
77FFE0
71FF80
000000
000000
000000
000000
000000
000000
000000
000000
000000
000000
ENDCHAR

STARTCHAR CODE022
ENCODING 22
SWIDTH 451 0
DWIDTH 24 0
BBX 24 48 0 -6
BITMAP
000000
000000
000000
000000
000000
000000
000000
000000
000000
000000
000000
000000
000000
FFFFFF
FFFFFF
FFFFFF
FFFFFF
FFFFFF
FFFFFF
FFFFFF
FFFFFF
FFFFFF
FFFFFF
FFFFFF
FFFFFF
FFFFFF
FFFFFF
FFFFFF
FFFFFF
FFFFFF
FFFFFF
FFFFFF
000000
000000
000000
000000
000000
000000
000000
000000
000000
000000
000000
000000
000000
000000
000000
000000
ENDCHAR

STARTCHAR CODE023
ENCODING 23
SWIDTH 451 0
DWIDTH 24 0
BBX 24 48 0 -6
BITMAP
000000
001800
003C00
007E00
00FF00
01FF80
03FFC0
07FFE0
0FBDF0
0E3C70
003C00
003C00
003C00
003C00
003C00
003C00
003C00
003C00
003C00
003C00
003C00
003C00
003C00
003C00
003C00
003C00
003C00
003C00
003C00
003C00
003C00
003C00
003C00
003C00
0E3C70
0FBDF0
07FFE0
03FFC0
01FF80
00FF00
007E00
003C00
FFFFFF
FFFFFF
FFFFFF
FFFFFF
000000
000000
ENDCHAR

STARTCHAR CODE024
ENCODING 24
SWIDTH 451 0
DWIDTH 24 0
BBX 24 48 0 -6
BITMAP
000000
001800
003C00
007E00
00FF00
01FF80
03FFC0
07FFE0
0FBDF0
0E3C70
003C00
003C00
003C00
003C00
003C00
003C00
003C00
003C00
003C00
003C00
003C00
003C00
003C00
003C00
003C00
003C00
003C00
003C00
003C00
003C00
003C00
003C00
003C00
003C00
003C00
003C00
003C00
003C00
003C00
003C00
003C00
003C00
003C00
003C00
003C00
000000
000000
000000
ENDCHAR

STARTCHAR CODE025
ENCODING 25
SWIDTH 451 0
DWIDTH 24 0
BBX 24 48 0 -6
BITMAP
000000
003C00
003C00
003C00
003C00
003C00
003C00
003C00
003C00
003C00
003C00
003C00
003C00
003C00
003C00
003C00
003C00
003C00
003C00
003C00
003C00
003C00
003C00
003C00
003C00
003C00
003C00
003C00
003C00
003C00
003C00
003C00
003C00
003C00
003C00
003C00
0E3C70
0FBDF0
07FFE0
03FFC0
01FF80
00FF00
007E00
003C00
001800
000000
000000
000000
ENDCHAR

STARTCHAR CODE026
ENCODING 26
SWIDTH 451 0
DWIDTH 24 0
BBX 24 48 0 -6
BITMAP
000000
000000
000000
000000
000000
000000
000000
000000
000000
000000
000000
000000
000000
000000
000000
000180
0001C0
0001E0
0000F0
0000F8
00007C
FFFFFE
FFFFFF
FFFFFF
FFFFFE
00007C
0000F8
0000F0
0001E0
0001C0
000180
000000
000000
000000
000000
000000
000000
000000
000000
000000
000000
000000
000000
000000
000000
000000
000000
000000
ENDCHAR

STARTCHAR CODE027
ENCODING 27
SWIDTH 451 0
DWIDTH 24 0
BBX 24 48 0 -6
BITMAP
000000
000000
000000
000000
000000
000000
000000
000000
000000
000000
000000
000000
000000
000000
000000
018000
038000
078000
0F0000
1F0000
3E0000
7FFFFF
FFFFFF
FFFFFF
7FFFFF
3E0000
1F0000
0F0000
078000
038000
018000
000000
000000
000000
000000
000000
000000
000000
000000
000000
000000
000000
000000
000000
000000
000000
000000
000000
ENDCHAR

STARTCHAR CODE028
ENCODING 28
SWIDTH 451 0
DWIDTH 24 0
BBX 24 48 0 -6
BITMAP
000000
000000
000000
000000
000000
000000
000000
000000
000000
000000
000000
F00000
F00000
F00000
F00000
F00000
F00000
F00000
F00000
F00000
F00000
F00000
F00000
F00000
F00000
F00000
F00000
F00000
F00000
F00000
F00000
F00000
FFFFFF
FFFFFF
FFFFFF
FFFFFF
000000
000000
000000
000000
000000
000000
000000
000000
000000
000000
000000
000000
ENDCHAR

STARTCHAR CODE029
ENCODING 29
SWIDTH 451 0
DWIDTH 24 0
BBX 24 48 0 -6
BITMAP
000000
000000
000000
000000
000000
000000
000000
000000
000000
000000
000000
000000
000000
000000
000000
000000
0300C0
0700E0
0F00F0
1E0078
3E007C
7FFFFE
FFFFFF
FFFFFF
7FFFFE
3E007C
1E0078
0F00F0
0700E0
0300C0
000000
000000
000000
000000
000000
000000
000000
000000
000000
000000
000000
000000
000000
000000
000000
000000
000000
000000
ENDCHAR

STARTCHAR CODE030
ENCODING 30
SWIDTH 451 0
DWIDTH 24 0
BBX 24 48 0 -6
BITMAP
000000
000000
000000
000000
000000
000000
000000
000000
001800
001800
003C00
003C00
007E00
007E00
00FF00
00FF00
00FF00
01FF80
01FF80
03FFC0
03FFC0
03FFC0
07FFE0
07FFE0
0FFFF0
0FFFF0
0FFFF0
1FFFF8
1FFFF8
3FFFFC
3FFFFC
3FFFFC
7FFFFE
7FFFFE
7FFFFE
FFFFFF
FFFFFF
000000
000000
000000
000000
000000
000000
000000
000000
000000
000000
000000
ENDCHAR

STARTCHAR CODE031
ENCODING 31
SWIDTH 451 0
DWIDTH 24 0
BBX 24 48 0 -6
BITMAP
000000
000000
000000
000000
000000
000000
000000
000000
FFFFFF
FFFFFF
7FFFFE
7FFFFE
7FFFFE
3FFFFC
3FFFFC
3FFFFC
1FFFF8
1FFFF8
0FFFF0
0FFFF0
0FFFF0
07FFE0
07FFE0
03FFC0
03FFC0
03FFC0
01FF80
01FF80
00FF00
00FF00
00FF00
007E00
007E00
003C00
003C00
001800
001800
000000
000000
000000
000000
000000
000000
000000
000000
000000
000000
000000
ENDCHAR

STARTCHAR CODE032
ENCODING 32
SWIDTH 451 0
DWIDTH 24 0
BBX 24 48 0 -6
BITMAP
000000
000000
000000
000000
000000
000000
000000
000000
000000
000000
000000
000000
000000
000000
000000
000000
000000
000000
000000
000000
000000
000000
000000
000000
000000
000000
000000
000000
000000
000000
000000
000000
000000
000000
000000
000000
000000
000000
000000
000000
000000
000000
000000
000000
000000
000000
000000
000000
ENDCHAR

STARTCHAR CODE033
ENCODING 33
SWIDTH 451 0
DWIDTH 24 0
BBX 24 48 0 -6
BITMAP
000000
000000
000000
000000
001C00
003E00
003E00
003E00
003E00
003E00
003E00
003E00
003E00
003E00
003E00
003E00
003E00
003E00
003E00
003E00
003E00
003E00
003E00
003E00
003E00
001C00
001C00
001C00
001C00
000000
000000
000000
001C00
003E00
003E00
003E00
003E00
001C00
000000
000000
000000
000000
000000
000000
000000
000000
000000
000000
ENDCHAR

STARTCHAR CODE034
ENCODING 34
SWIDTH 451 0
DWIDTH 24 0
BBX 24 48 0 -6
BITMAP
000000
000000
000000
000000
00C300
01E780
01E780
01E780
01E780
01E780
01E780
01E780
01E780
01E780
00C300
00C300
00C300
000000
000000
000000
000000
000000
000000
000000
000000
000000
000000
000000
000000
000000
000000
000000
000000
000000
000000
000000
000000
000000
000000
000000
000000
000000
000000
000000
000000
000000
000000
000000
ENDCHAR

STARTCHAR CODE035
ENCODING 35
SWIDTH 451 0
DWIDTH 24 0
BBX 24 48 0 -6
BITMAP
000000
000000
000000
000000
000000
01E1E0
01E1E0
01E1E0
01E1E0
01E1E0
01E1E0
01E1E0
01E1E0
01E1E0
3FFFFE
3FFFFE
3FFFFE
3FFFFE
03C3C0
03C3C0
03C3C0
03C3C0
03C3C0
7FFFFC
7FFFFC
7FFFFC
7FFFFC
078780
078780
078780
078780
078780
078780
078780
078780
078780
078780
000000
000000
000000
000000
000000
000000
000000
000000
000000
000000
000000
ENDCHAR

STARTCHAR CODE036
ENCODING 36
SWIDTH 451 0
DWIDTH 24 0
BBX 24 48 0 -6
BITMAP
000000
001C00
001C00
001C00
01FF1C
07FFDC
0FFFFC
1F9FFC
1F1CFC
3E1C7C
3E1C3C
3C1C1C
3C1C1C
3E1C0C
3E1C0C
3F1C00
3F9C00
1FFC00
1FFC00
0FFE00
03FF80
00FFE0
003FF0
001FF8
001FFC
001CFC
001C7E
601C3E
601C3E
701C1E
701C1E
781C3E
7C1C3C
7F1C7C
7FDDF8
7FFFF0
77FFE0
71FF80
001C00
001C00
001C00
001C00
000000
000000
000000
000000
000000
000000
ENDCHAR

STARTCHAR CODE037
ENCODING 37
SWIDTH 451 0
DWIDTH 24 0
BBX 24 48 0 -6
BITMAP
000000
000000
000000
000000
0000E0
07C1E0
0FE7E0
1FFFC0
3FFFC0
3E7FC0
7C7380
7C3380
787780
F87700
F87700
F8EF00
F8EE00
F0EE00
F1DE00
F9DC7C
7FFCFE
7FB9FE
3F3BFF
1E7BE7
0077C7
0077C3
00F787
00EF87
00EF87
01EF0F
01CF0E
03CF1E
038F9E
0387FC
0787FC
0703F8
0701F0
070000
000000
000000
000000
000000
000000
000000
000000
000000
000000
000000
ENDCHAR

STARTCHAR CODE038
ENCODING 38
SWIDTH 451 0
DWIDTH 24 0
BBX 24 48 0 -6
BITMAP
000000
000000
000000
000000
00FC00
01FE00
03FF00
03CF00
07C700
078700
078700
078700
078F00
078E00
07DE00
07FC00
07F9FE
03F1FE
03E1FE
03F078
07F070
0FF070
1FF870
3EF870
3CFC70
7C7CE0
787EE0
783EE0
783EE0
781FE0
781FC0
7C0FC3
7C0FC7
7E1FEF
3F7FFE
3FFFFE
1FF1FC
07C0F8
000000
000000
000000
000000
000000
000000
000000
000000
000000
000000
ENDCHAR

STARTCHAR CODE039
ENCODING 39
SWIDTH 451 0
DWIDTH 24 0
BBX 24 48 0 -6
BITMAP
000000
000000
000000
000000
001800
003C00
003C00
003C00
003C00
003C00
003C00
003C00
003C00
003C00
001800
001800
001800
000000
000000
000000
000000
000000
000000
000000
000000
000000
000000
000000
000000
000000
000000
000000
000000
000000
000000
000000
000000
000000
000000
000000
000000
000000
000000
000000
000000
000000
000000
000000
ENDCHAR

STARTCHAR CODE040
ENCODING 40
SWIDTH 451 0
DWIDTH 24 0
BBX 24 48 0 -6
BITMAP
000000
000000
000000
000000
000180
000380
000780
000F00
000F00
001E00
001E00
003E00
003C00
003C00
007C00
007800
007800
007800
00F800
00F000
00F000
00F000
00F000
00F000
00F000
00F000
00F000
00F000
00F000
00F000
00F000
00F800
007800
007800
007800
007C00
003C00
003C00
003E00
001E00
001E00
000F00
000F00
000780
000380
000180
000000
000000
ENDCHAR

STARTCHAR CODE041
ENCODING 41
SWIDTH 451 0
DWIDTH 24 0
BBX 24 48 0 -6
BITMAP
000000
000000
000000
000000
00C000
00E000
00F000
007800
007800
003C00
003C00
003E00
001E00
001E00
001F00
000F00
000F00
000F00
000F80
000780
000780
000780
000780
000780
000780
000780
000780
000780
000780
000780
000780
000F80
000F00
000F00
000F00
001F00
001E00
001E00
003E00
003C00
003C00
007800
007800
00F000
00E000
00C000
000000
000000
ENDCHAR

STARTCHAR CODE042
ENCODING 42
SWIDTH 451 0
DWIDTH 24 0
BBX 24 48 0 -6
BITMAP
000000
000000
000000
000000
000000
000000
000000
000000
000000
000000
000000
000000
000000
000000
000000
000000
000000
001800
003C00
003C00
0E3C70
1F3CF8
1FBDF8
1FFFF8
0FFFF0
03FFC0
007E00
03FFC0
0FFFF0
1FFFF8
1FBDF8
1F3CF8
0E3C70
003C00
003C00
001800
000000
000000
000000
000000
000000
000000
000000
000000
000000
000000
000000
000000
ENDCHAR

STARTCHAR CODE043
ENCODING 43
SWIDTH 451 0
DWIDTH 24 0
BBX 24 48 0 -6
BITMAP
000000
000000
000000
000000
000000
000000
000000
000000
000000
000000
000000
000000
000000
000000
000000
000000
003C00
003C00
003C00
003C00
003C00
003C00
003C00
003C00
003C00
7FFFFC
7FFFFC
7FFFFC
7FFFFC
003C00
003C00
003C00
003C00
003C00
003C00
003C00
003C00
000000
000000
000000
000000
000000
000000
000000
000000
000000
000000
000000
ENDCHAR

STARTCHAR CODE044
ENCODING 44
SWIDTH 451 0
DWIDTH 24 0
BBX 24 48 0 -6
BITMAP
000000
000000
000000
000000
000000
000000
000000
000000
000000
000000
000000
000000
000000
000000
000000
000000
000000
000000
000000
000000
000000
000000
000000
000000
000000
000000
000000
000000
000000
000000
000000
000000
003C00
007E00
007E00
007E00
007E00
003E00
000E00
000E00
001C00
003C00
007800
007000
000000
000000
000000
000000
ENDCHAR

STARTCHAR CODE045
ENCODING 45
SWIDTH 451 0
DWIDTH 24 0
BBX 24 48 0 -6
BITMAP
000000
000000
000000
000000
000000
000000
000000
000000
000000
000000
000000
000000
000000
000000
000000
000000
000000
000000
000000
000000
000000
000000
000000
000000
000000
3FFFFE
3FFFFE
3FFFFE
3FFFFE
000000
000000
000000
000000
000000
000000
000000
000000
000000
000000
000000
000000
000000
000000
000000
000000
000000
000000
000000
ENDCHAR

STARTCHAR CODE046
ENCODING 46
SWIDTH 451 0
DWIDTH 24 0
BBX 24 48 0 -6
BITMAP
000000
000000
000000
000000
000000
000000
000000
000000
000000
000000
000000
000000
000000
000000
000000
000000
000000
000000
000000
000000
000000
000000
000000
000000
000000
000000
000000
000000
000000
000000
000000
000000
003C00
007E00
007E00
007E00
007E00
003C00
000000
000000
000000
000000
000000
000000
000000
000000
000000
000000
ENDCHAR

STARTCHAR CODE047
ENCODING 47
SWIDTH 451 0
DWIDTH 24 0
BBX 24 48 0 -6
BITMAP
000000
000000
000000
000000
000380
000380
000780
000780
000780
000780
000F00
000F00
000F00
000F00
000E00
001E00
001E00
001E00
001E00
003C00
003C00
003C00
003C00
003800
007800
007800
007800
007800
00F000
00F000
00F000
00F000
00E000
01E000
01E000
01E000
01E000
01C000
01C000
000000
000000
000000
000000
000000
000000
000000
000000
000000
ENDCHAR

STARTCHAR CODE048
ENCODING 48
SWIDTH 451 0
DWIDTH 24 0
BBX 24 48 0 -6
BITMAP
000000
000000
000000
000000
00FF00
03FFC0
07FFE0
0FC3F0
0F00F0
1F00F8
1E0078
1E0078
3E007C
3E003C
3C003C
7C003E
7C003E
7C003E
7C003E
7C003E
7C003E
7C003E
7C003E
7C003E
7C003E
7C003E
7C003E
3C003E
3E007C
3E007C
1E007C
1E0078
1F00F8
0F00F0
0FC3F0
07FFE0
03FFC0
00FF00
000000
000000
000000
000000
000000
000000
000000
000000
000000
000000
ENDCHAR

STARTCHAR CODE049
ENCODING 49
SWIDTH 451 0
DWIDTH 24 0
BBX 24 48 0 -6
BITMAP
000000
000000
000000
000C00
001C00
003C00
007C00
00FC00
01FC00
01FC00
003C00
003C00
003C00
003C00
003C00
003C00
003C00
003C00
003C00
003C00
003C00
003C00
003C00
003C00
003C00
003C00
003C00
003C00
003C00
003C00
003C00
003C00
003C00
003C00
007E00
01FF80
01FF80
000000
000000
000000
000000
000000
000000
000000
000000
000000
000000
000000
ENDCHAR

STARTCHAR CODE050
ENCODING 50
SWIDTH 451 0
DWIDTH 24 0
BBX 24 48 0 -6
BITMAP
000000
000000
000000
000000
00FF00
03FFC0
07FFE0
0FFFF0
1F87F0
1E01F8
3C00F8
3800F8
380078
300078
3000F8
0000F8
0000F8
0001F0
0001F0
0003E0
0003E0
0007C0
000F80
001F00
003E00
007C00
00F800
01F000
03E000
07C006
0F8006
1F000E
3E001E
3FFFFE
3FFFFE
3FFFFE
3FFFFE
000000
000000
000000
000000
000000
000000
000000
000000
000000
000000
000000
ENDCHAR

STARTCHAR CODE051
ENCODING 51
SWIDTH 451 0
DWIDTH 24 0
BBX 24 48 0 -6
BITMAP
000000
000000
000000
000000
00FF00
03FFC0
07FFE0
0FFFF0
1F87F0
1E01F8
1C00F8
180078
000078
000078
0000F8
0000F0
0001F0
0007E0
01FFC0
01FFC0
01FFE0
000FF0
0003F8
0000F8
00007C
00007C
00003C
00003C
00003C
00003C
1E007C
3F007C
3F00F8
3F01F8
3F87F0
1FFFE0
0FFFC0
03FF00
000000
000000
000000
000000
000000
000000
000000
000000
000000
000000
ENDCHAR

STARTCHAR CODE052
ENCODING 52
SWIDTH 451 0
DWIDTH 24 0
BBX 24 48 0 -6
BITMAP
000000
000000
000000
000000
0001E0
0003E0
0007E0
000FE0
000FE0
001FE0
003FE0
003DE0
0079E0
00F9E0
00F1E0
01E1E0
03E1E0
03C1E0
0781E0
0F81E0
0F01E0
1E01E0
3E01E0
3C01E0
7801E0
7FFFFE
7FFFFE
7FFFFE
7FFFFE
0001E0
0001E0
0001E0
0001E0
0001E0
0001E0
0001E0
0001E0
000000
000000
000000
000000
000000
000000
000000
000000
000000
000000
000000
ENDCHAR

STARTCHAR CODE053
ENCODING 53
SWIDTH 451 0
DWIDTH 24 0
BBX 24 48 0 -6
BITMAP
000000
000000
000000
000000
00000C
03FFFC
03FFFC
03FFFC
03FFFC
038000
038000
038000
038000
038000
038000
038000
03F000
03FE00
03FF80
03FFE0
03FFF0
003FF8
0003FC
0000FC
00007E
00003E
00003E
00001E
00001E
00001E
00003E
0F003E
1F807C
1F80FC
1FC3F8
1FFFF0
0FFFE0
03FF80
000000
000000
000000
000000
000000
000000
000000
000000
000000
000000
ENDCHAR

STARTCHAR CODE054
ENCODING 54
SWIDTH 451 0
DWIDTH 24 0
BBX 24 48 0 -6
BITMAP
000000
000000
000000
000000
0007F0
001FF0
007F80
00FC00
01F000
03E000
07C000
078000
0F8000
0F0000
1F0000
1E0000
1E3F80
3EFFE0
3FFFF0
3FE3F8
3F80F8
3F007C
3E007C
3C003C
3C003C
3C003C
3C003C
3C003C
3C003C
3C003C
3E003C
3E007C
1F0078
1F80F8
0FE3F0
07FFE0
03FFC0
00FF00
000000
000000
000000
000000
000000
000000
000000
000000
000000
000000
ENDCHAR

STARTCHAR CODE055
ENCODING 55
SWIDTH 451 0
DWIDTH 24 0
BBX 24 48 0 -6
BITMAP
000000
000000
000000
000000
000000
1FFFFC
1FFFFC
1FFFFC
1FFFFC
1C003C
180038
180038
180078
000078
000078
000070
0000F0
0000F0
0000F0
0000E0
0001E0
0001E0
0001E0
0001C0
0003C0
0003C0
0003C0
000380
000780
000780
000780
000700
000F00
000F00
000F00
000E00
000E00
000E00
000000
000000
000000
000000
000000
000000
000000
000000
000000
000000
ENDCHAR

STARTCHAR CODE056
ENCODING 56
SWIDTH 451 0
DWIDTH 24 0
BBX 24 48 0 -6
BITMAP
000000
000000
000000
000000
01FF00
07FFC0
0FFFE0
1F83F0
1E00F8
3E0078
3C0078
3C0078
3E0078
3E00F8
3F00F0
1F81F0
1FC3E0
0FF7C0
07FF80
03FF00
01FF80
03FFE0
0FFFF0
1FCFF8
1F03FC
3E00FC
3C007E
7C003E
78003E
78001E
78001E
7C003E
3C003C
3E007C
1FC3F8
0FFFF0
03FFC0
00FF00
000000
000000
000000
000000
000000
000000
000000
000000
000000
000000
ENDCHAR

STARTCHAR CODE057
ENCODING 57
SWIDTH 451 0
DWIDTH 24 0
BBX 24 48 0 -6
BITMAP
000000
000000
000000
000000
00FF00
03FFC0
07FFE0
0FC3F0
1F00F8
1E0078
3E007C
3C003C
3C003C
3C003C
3C003C
3C003C
3C003C
3C003C
3C007C
3E007C
3E00FC
1F01FC
1FC7FC
0FFFFC
07FFBC
01FE7C
000078
0000F8
0000F8
0001F0
0001F0
0003E0
0007C0
000F80
003F00
01FE00
0FF800
0FE000
000000
000000
000000
000000
000000
000000
000000
000000
000000
000000
ENDCHAR

STARTCHAR CODE058
ENCODING 58
SWIDTH 451 0
DWIDTH 24 0
BBX 24 48 0 -6
BITMAP
000000
000000
000000
000000
000000
000000
000000
000000
000000
000000
000000
000000
000000
000000
000000
003C00
007E00
007E00
007E00
007E00
003C00
000000
000000
000000
000000
000000
000000
000000
000000
000000
000000
000000
003C00
007E00
007E00
007E00
007E00
003C00
000000
000000
000000
000000
000000
000000
000000
000000
000000
000000
ENDCHAR

STARTCHAR CODE059
ENCODING 59
SWIDTH 451 0
DWIDTH 24 0
BBX 24 48 0 -6
BITMAP
000000
000000
000000
000000
000000
000000
000000
000000
000000
000000
000000
000000
000000
000000
000000
003C00
007E00
007E00
007E00
007E00
003C00
000000
000000
000000
000000
000000
000000
000000
000000
000000
000000
000000
003C00
007E00
007E00
007E00
007E00
003E00
000E00
000E00
001C00
003C00
007800
007000
000000
000000
000000
000000
ENDCHAR

STARTCHAR CODE060
ENCODING 60
SWIDTH 451 0
DWIDTH 24 0
BBX 24 48 0 -6
BITMAP
000000
000000
000000
000000
000000
000000
000000
000000
000000
000000
000000
000000
000000
00000C
00003C
0000FC
0003FC
000FF8
003FE0
00FF80
03FE00
0FF800
3FE000
3F8000
3E0000
3F8000
3FE000
0FF800
03FE00
00FF80
003FE0
000FF8
0003FC
0000FC
00003C
00000C
000000
000000
000000
000000
000000
000000
000000
000000
000000
000000
000000
000000
ENDCHAR

STARTCHAR CODE061
ENCODING 61
SWIDTH 451 0
DWIDTH 24 0
BBX 24 48 0 -6
BITMAP
000000
000000
000000
000000
000000
000000
000000
000000
000000
000000
000000
000000
000000
000000
000000
000000
000000
000000
3FFFFE
3FFFFE
3FFFFE
3FFFFE
000000
000000
000000
000000
000000
000000
3FFFFE
3FFFFE
3FFFFE
3FFFFE
000000
000000
000000
000000
000000
000000
000000
000000
000000
000000
000000
000000
000000
000000
000000
000000
ENDCHAR

STARTCHAR CODE062
ENCODING 62
SWIDTH 451 0
DWIDTH 24 0
BBX 24 48 0 -6
BITMAP
000000
000000
000000
000000
000000
000000
000000
000000
000000
000000
000000
000000
000000
300000
3C0000
3F0000
3FC000
1FF000
07FC00
01FF00
007FC0
001FF0
0007FC
0001FC
00007C
0001FC
0007FC
001FF0
007FC0
01FF00
07FC00
1FF000
3FC000
3F0000
3C0000
300000
000000
000000
000000
000000
000000
000000
000000
000000
000000
000000
000000
000000
ENDCHAR

STARTCHAR CODE063
ENCODING 63
SWIDTH 451 0
DWIDTH 24 0
BBX 24 48 0 -6
BITMAP
000000
000000
000000
000000
01FF00
07FFC0
0FFFE0
1FC7F0
1F01F0
3E00F8
3F00F8
3F0078
3F0078
3F0078
1E0078
0000F8
0000F8
0001F0
0001F0
0003E0
0007C0
000F80
000F00
001E00
001E00
001C00
003C00
003800
003800
003800
000000
000000
003C00
007E00
007E00
007E00
007E00
003C00
000000
000000
000000
000000
000000
000000
000000
000000
000000
000000
ENDCHAR

STARTCHAR CODE064
ENCODING 64
SWIDTH 451 0
DWIDTH 24 0
BBX 24 48 0 -6
BITMAP
000000
000000
000000
000000
007F00
01FFC0
03FFE0
07E1F0
0F8078
1F003C
1E001C
3E001C
3C1E0E
3C3FEE
787FEE
787BE6
78F1E6
78F1C6
71E1C6
71E1C6
71E1C6
71E3CE
71C3CE
71C38E
79E39C
79E79C
79FF9C
78FFF8
3CFFF8
3C79F0
3E0000
1E0000
1F0000
0F801C
0FE07C
07FFF8
01FFE0
007F80
000000
000000
000000
000000
000000
000000
000000
000000
000000
000000
ENDCHAR

STARTCHAR CODE065
ENCODING 65
SWIDTH 451 0
DWIDTH 24 0
BBX 24 48 0 -6
BITMAP
000000
000000
000000
000000
003800
003800
003800
007C00
007C00
007C00
007C00
00FE00
00FE00
00FE00
00FF00
01FF00
01CF00
01CF00
01CF80
03C780
038780
0387C0
0387C0
0783C0
07FFE0
07FFE0
07FFE0
0FFFE0
0E01F0
0E01F0
0E00F0
1E00F8
1C00F8
1C0078
3E00FC
FF83FF
FF83FF
000000
000000
000000
000000
000000
000000
000000
000000
000000
000000
000000
ENDCHAR

STARTCHAR CODE066
ENCODING 66
SWIDTH 451 0
DWIDTH 24 0
BBX 24 48 0 -6
BITMAP
000000
000000
000000
000000
000000
FFFF80
FFFFE0
3FFFF0
1E03F8
1E00F8
1E007C
1E007C
1E003C
1E003C
1E003C
1E007C
1E0078
1E00F8
1E03F0
1FFFE0
1FFFE0
1FFFF0
1E03F8
1E00FC
1E007C
1E003E
1E003E
1E001E
1E001E
1E001E
1E003E
1E003E
1E007C
1E01FC
3FFFF8
FFFFF0
FFFFC0
000000
000000
000000
000000
000000
000000
000000
000000
000000
000000
000000
ENDCHAR

STARTCHAR CODE067
ENCODING 67
SWIDTH 451 0
DWIDTH 24 0
BBX 24 48 0 -6
BITMAP
000000
000000
000000
000000
007FC6
01FFF6
03FFFE
07F0FE
0FC03E
0F801E
1F000E
1F000E
3E0006
3E0006
3E0000
7E0000
7C0000
7C0000
7C0000
7C0000
7C0000
7C0000
7C0000
7C0000
7C0000
7C0000
7E0000
3E0000
3E0000
3E0000
1F0006
1F000E
0F801E
0FC03E
07F0FC
03FFF8
01FFF0
007FC0
000000
000000
000000
000000
000000
000000
000000
000000
000000
000000
ENDCHAR

STARTCHAR CODE068
ENCODING 68
SWIDTH 451 0
DWIDTH 24 0
BBX 24 48 0 -6
BITMAP
000000
000000
000000
000000
000000
FFFF00
FFFFC0
3FFFE0
1E03F0
1E00F8
1E0078
1E007C
1E003C
1E003E
1E003E
1E001E
1E001F
1E001F
1E001F
1E001F
1E001F
1E001F
1E001F
1E001F
1E001F
1E001F
1E001E
1E003E
1E003E
1E003C
1E007C
1E0078
1E00F8
1E03F0
3FFFE0
FFFFC0
FFFF00
000000
000000
000000
000000
000000
000000
000000
000000
000000
000000
000000
ENDCHAR

STARTCHAR CODE069
ENCODING 69
SWIDTH 451 0
DWIDTH 24 0
BBX 24 48 0 -6
BITMAP
000000
000000
000000
000000
000000
FFFFF8
FFFFF8
3FFFF8
1E0078
1E0038
1E0038
1E0018
1E0018
1E0000
1E0000
1E0030
1E0030
1E0030
1E0070
1FFFF0
1FFFF0
1FFFF0
1E0070
1E0030
1E0030
1E0030
1E0000
1E0000
1E0000
1E000C
1E000C
1E001C
1E001C
1E003C
3FFFFC
FFFFFC
FFFFFC
000000
000000
000000
000000
000000
000000
000000
000000
000000
000000
000000
ENDCHAR

STARTCHAR CODE070
ENCODING 70
SWIDTH 451 0
DWIDTH 24 0
BBX 24 48 0 -6
BITMAP
000000
000000
000000
000000
000000
FFFFFC
FFFFFC
3FFFFC
1E003C
1E001C
1E001C
1E000C
1E000C
1E0000
1E0060
1E0060
1E0060
1E00E0
1FFFE0
1FFFE0
1FFFE0
1E00E0
1E0060
1E0060
1E0060
1E0000
1E0000
1E0000
1E0000
1E0000
1E0000
1E0000
1E0000
1E0000
3F0000
FFC000
FFC000
000000
000000
000000
000000
000000
000000
000000
000000
000000
000000
000000
ENDCHAR

STARTCHAR CODE071
ENCODING 71
SWIDTH 451 0
DWIDTH 24 0
BBX 24 48 0 -6
BITMAP
000000
000000
000000
000000
00FF0C
03FFCC
07FFFC
0FE3FC
1F80FC
1F007C
3E003C
3E001C
7C001C
7C000C
7C000C
F80000
F80000
F80000
F80000
F803FF
F803FF
F800FC
F80078
F80078
F80078
F80078
F80078
F80078
7C0078
7C0078
7E0078
3E0078
3F0078
1F80F8
0FE3F8
07FFF0
03FFE0
00FF80
000000
000000
000000
000000
000000
000000
000000
000000
000000
000000
ENDCHAR

STARTCHAR CODE072
ENCODING 72
SWIDTH 451 0
DWIDTH 24 0
BBX 24 48 0 -6
BITMAP
000000
000000
000000
000000
000000
FFC3FF
FFC3FF
3F00FC
1E0078
1E0078
1E0078
1E0078
1E0078
1E0078
1E0078
1E0078
1E0078
1E0078
1E0078
1FFFF8
1FFFF8
1FFFF8
1E0078
1E0078
1E0078
1E0078
1E0078
1E0078
1E0078
1E0078
1E0078
1E0078
1E0078
1E0078
3F00FC
FFC3FF
FFC3FF
000000
000000
000000
000000
000000
000000
000000
000000
000000
000000
000000
ENDCHAR

STARTCHAR CODE073
ENCODING 73
SWIDTH 451 0
DWIDTH 24 0
BBX 24 48 0 -6
BITMAP
000000
000000
000000
000000
000000
01FF80
01FF80
007E00
003C00
003C00
003C00
003C00
003C00
003C00
003C00
003C00
003C00
003C00
003C00
003C00
003C00
003C00
003C00
003C00
003C00
003C00
003C00
003C00
003C00
003C00
003C00
003C00
003C00
003C00
007E00
01FF80
01FF80
000000
000000
000000
000000
000000
000000
000000
000000
000000
000000
000000
ENDCHAR

STARTCHAR CODE074
ENCODING 74
SWIDTH 451 0
DWIDTH 24 0
BBX 24 48 0 -6
BITMAP
000000
000000
000000
000000
000000
007FE0
007FE0
001F80
000F00
000F00
000F00
000F00
000F00
000F00
000F00
000F00
000F00
000F00
000F00
000F00
000F00
000F00
000F00
000F00
000F00
000F00
000F00
000F00
000F00
000F00
000F00
000F00
0F0F00
1F8F00
1F9F00
1FFE00
0FFE00
03F800
000000
000000
000000
000000
000000
000000
000000
000000
000000
000000
ENDCHAR

STARTCHAR CODE075
ENCODING 75
SWIDTH 451 0
DWIDTH 24 0
BBX 24 48 0 -6
BITMAP
000000
000000
000000
000000
000000
FFC3FF
FFC3FF
3F01F0
1E01E0
1E03C0
1E07C0
1E0780
1E0F00
1E1F00
1E1E00
1E3C00
1E7C00
1E7800
1EF800
1FF800
1FFC00
1FFC00
1FBE00
1FBE00
1F1F00
1E1F00
1E0F80
1E0F80
1E07C0
1E07C0
1E03E0
1E03E0
1E01F0
1E01F0
3F00F8
FFC3FF
FFC3FF
000000
000000
000000
000000
000000
000000
000000
000000
000000
000000
000000
ENDCHAR

STARTCHAR CODE076
ENCODING 76
SWIDTH 451 0
DWIDTH 24 0
BBX 24 48 0 -6
BITMAP
000000
000000
000000
000000
000000
FFC000
FFC000
3F0000
1E0000
1E0000
1E0000
1E0000
1E0000
1E0000
1E0000
1E0000
1E0000
1E0000
1E0000
1E0000
1E0000
1E0000
1E0000
1E0000
1E0000
1E0000
1E0000
1E0000
1E0000
1E0006
1E0006
1E000E
1E000E
1E001E
3FFFFE
7FFFFE
7FFFFE
000000
000000
000000
000000
000000
000000
000000
000000
000000
000000
000000
ENDCHAR

STARTCHAR CODE077
ENCODING 77
SWIDTH 451 0
DWIDTH 24 0
BBX 24 48 0 -6
BITMAP
000000
000000
000000
000000
000000
FE007F
FE007F
7E007E
3E007C
3F00FC
3F00FC
3F00FC
3F00FC
3F81FC
3F81FC
3F81FC
3F81FC
3FC3FC
3BC3BC
3BC3BC
3BC3BC
3BE7BC
39E73C
39E73C
39E73C
39FF3C
38FE3C
38FE3C
38FE3C
38FE3C
387C3C
387C3C
387C3C
387C3C
7C387E
FE38FF
FE38FF
000000
000000
000000
000000
000000
000000
000000
000000
000000
000000
000000
ENDCHAR

STARTCHAR CODE078
ENCODING 78
SWIDTH 451 0
DWIDTH 24 0
BBX 24 48 0 -6
BITMAP
000000
000000
000000
000000
000000
FF01FF
FF01FF
3F807C
1F8038
1FC038
1FC038
1FE038
1FE038
1DF038
1DF038
1CF838
1CF838
1C7C38
1C7C38
1C3E38
1C3E38
1C1F38
1C1F38
1C0FB8
1C0FB8
1C07F8
1C07F8
1C03F8
1C03F8
1C01F8
1C01F8
1C00F8
1C00F8
1C0078
3E0078
FF8038
FF8038
000000
000000
000000
000000
000000
000000
000000
000000
000000
000000
000000
ENDCHAR

STARTCHAR CODE079
ENCODING 79
SWIDTH 451 0
DWIDTH 24 0
BBX 24 48 0 -6
BITMAP
000000
000000
000000
000000
00FF00
03FFC0
07FFE0
0FC3F0
1F00F8
1F00F8
3E007C
3E007C
7C003E
7C003E
7C003E
F8001F
F8001F
F8001F
F8001F
F8001F
F8001F
F8001F
F8001F
F8001F
F8001F
F8001F
F8001F
7C003E
7C003E
7C003E
3E007C
3E007C
1F00F8
1F00F8
0FC3F0
07FFE0
03FFC0
00FF00
000000
000000
000000
000000
000000
000000
000000
000000
000000
000000
ENDCHAR

STARTCHAR CODE080
ENCODING 80
SWIDTH 451 0
DWIDTH 24 0
BBX 24 48 0 -6
BITMAP
000000
000000
000000
000000
000000
FFFFC0
FFFFF0
3FFFF8
1F03FC
1F00FC
1F007E
1F003E
1F003E
1F001E
1F001E
1F001E
1F003E
1F003E
1F007C
1F00FC
1F03F8
1FFFF0
1FFFE0
1FFF80
1F0000
1F0000
1F0000
1F0000
1F0000
1F0000
1F0000
1F0000
1F0000
1F0000
3F8000
FFE000
FFE000
000000
000000
000000
000000
000000
000000
000000
000000
000000
000000
000000
ENDCHAR

STARTCHAR CODE081
ENCODING 81
SWIDTH 451 0
DWIDTH 24 0
BBX 24 48 0 -6
BITMAP
000000
000000
000000
000000
00FF00
03FFC0
07FFE0
0FC3F0
1F00F8
1F00F8
3E007C
3E007C
7C003E
7C003E
7C003E
F8001F
F8001F
F8001F
F8001F
F8001F
F8001F
F8001F
F8001F
F8001F
F8001F
F8001F
F8001F
7C003E
7C003E
7C003E
3E007C
3E007C
1F00F8
1F00F8
0FC3F0
07FFE0
03FFC0
00FF00
007E00
007F00
003F00
001F80
000FC0
0007F0
0003FC
0000FC
000000
000000
ENDCHAR

STARTCHAR CODE082
ENCODING 82
SWIDTH 451 0
DWIDTH 24 0
BBX 24 48 0 -6
BITMAP
000000
000000
000000
000000
000000
FFFFC0
FFFFF0
3FFFF8
1E03FC
1E00FC
1E007E
1E007E
1E003E
1E003E
1E003E
1E003E
1E007E
1E007C
1E00FC
1E03F8
1FFFF0
1FFFC0
1FFF00
1E1F80
1E0F80
1E0FC0
1E07C0
1E07E0
1E03E0
1E03F0
1E01F0
1E01F8
1E00F8
1E00FC
3E007C
FFC1FF
FFC1FF
000000
000000
000000
000000
000000
000000
000000
000000
000000
000000
000000
ENDCHAR

STARTCHAR CODE083
ENCODING 83
SWIDTH 451 0
DWIDTH 24 0
BBX 24 48 0 -6
BITMAP
000000
000000
000000
000000
01FF1C
07FFDC
0FFFFC
1F83FC
1F00FC
3E007C
3E003C
3C001C
3C001C
3E000C
3E000C
3F0000
3F8000
1FE000
1FF800
0FFE00
03FF80
00FFE0
003FF0
000FF8
0003FC
0000FC
00007E
60003E
60003E
70001E
70001E
78003E
7C003C
7F007C
7FC1F8
7FFFF0
77FFE0
70FF80
000000
000000
000000
000000
000000
000000
000000
000000
000000
000000
ENDCHAR

STARTCHAR CODE084
ENCODING 84
SWIDTH 451 0
DWIDTH 24 0
BBX 24 48 0 -6
BITMAP
000000
000000
000000
000000
000000
7FFFFE
7FFFFE
7FFFFE
783C1E
703C0E
703C0E
603C06
603C06
603C06
003C00
003C00
003C00
003C00
003C00
003C00
003C00
003C00
003C00
003C00
003C00
003C00
003C00
003C00
003C00
003C00
003C00
003C00
003C00
003C00
007E00
03FFC0
03FFC0
000000
000000
000000
000000
000000
000000
000000
000000
000000
000000
000000
ENDCHAR

STARTCHAR CODE085
ENCODING 85
SWIDTH 451 0
DWIDTH 24 0
BBX 24 48 0 -6
BITMAP
000000
000000
000000
000000
000000
FFC1FF
FFC1FF
7F007C
3E0038
3E0038
3E0038
3E0038
3E0038
3E0038
3E0038
3E0038
3E0038
3E0038
3E0038
3E0038
3E0038
3E0038
3E0038
3E0038
3E0038
3E0038
3E0038
3E0038
3E0038
3E0038
3E0038
3F0078
3F0078
1F80F8
1FE3F0
0FFFF0
07FFE0
01FF80
000000
000000
000000
000000
000000
000000
000000
000000
000000
000000
ENDCHAR

STARTCHAR CODE086
ENCODING 86
SWIDTH 451 0
DWIDTH 24 0
BBX 24 48 0 -6
BITMAP
000000
000000
000000
000000
000000
FF807F
FF807F
7E001C
3E003C
3E003C
3E0038
1F0078
1F0078
1F0070
0F80F0
0F80F0
0F80E0
07C1E0
07C1E0
07C1C0
03E3C0
03E3C0
03E380
01F780
01F780
01F700
00FF00
00FF00
00FE00
007E00
007E00
007C00
003C00
003C00
003800
001800
001800
000000
000000
000000
000000
000000
000000
000000
000000
000000
000000
000000
ENDCHAR

STARTCHAR CODE087
ENCODING 87
SWIDTH 451 0
DWIDTH 24 0
BBX 24 48 0 -6
BITMAP
000000
000000
000000
000000
000000
FCFF3F
FCFF3F
787E1E
783C1C
7C3C1C
3C3C1C
3C3C1C
3C3C1C
3C1E3C
3E3E38
1E3E38
1E3E38
1E3E38
1E3F38
1F7F78
0F7F70
0F7F70
0F7F70
0F7F70
0FFFF0
07E7E0
07E7E0
07E7E0
07E7E0
07E7E0
03C3C0
03C3C0
03C3C0
03C3C0
03C3C0
018180
018180
018180
000000
000000
000000
000000
000000
000000
000000
000000
000000
000000
ENDCHAR

STARTCHAR CODE088
ENCODING 88
SWIDTH 451 0
DWIDTH 24 0
BBX 24 48 0 -6
BITMAP
000000
000000
000000
000000
000000
7FC1FE
7FC1FE
1F0078
1F8078
0F80F0
0FC0F0
07C1E0
07E1E0
03E3C0
03F3C0
01F780
01FF80
00FF00
00FF00
007E00
007E00
007E00
007F00
00FF00
00FF80
01EF80
01EFC0
03C7C0
03C7E0
0783E0
0783F0
0F01F0
0F01F8
1E00F8
3E00FC
FF01FF
FF01FF
000000
000000
000000
000000
000000
000000
000000
000000
000000
000000
000000
ENDCHAR

STARTCHAR CODE089
ENCODING 89
SWIDTH 451 0
DWIDTH 24 0
BBX 24 48 0 -6
BITMAP
000000
000000
000000
000000
000000
FF80FF
FF80FF
3E003C
3F0078
1F0078
1F80F0
0F80F0
0FC1E0
07C1E0
07E3C0
03E3C0
03F780
01F780
01FF00
00FF00
00FE00
007E00
007E00
003C00
003C00
003C00
003C00
003C00
003C00
003C00
003C00
003C00
003C00
003C00
007E00
01FF80
01FF80
000000
000000
000000
000000
000000
000000
000000
000000
000000
000000
000000
ENDCHAR

STARTCHAR CODE090
ENCODING 90
SWIDTH 451 0
DWIDTH 24 0
BBX 24 48 0 -6
BITMAP
000000
000000
000000
000000
000000
3FFFFC
3FFFFC
3FFFFC
3C00F8
3801F8
3801F0
3003F0
3003E0
3007E0
0007C0
000FC0
000F80
001F80
001F00
003F00
003E00
007E00
007C00
00FC00
00F800
01F800
01F000
03F000
03E00C
07E00C
07C00C
0FC01C
0F801C
1F803C
1FFFFC
3FFFFC
3FFFFC
000000
000000
000000
000000
000000
000000
000000
000000
000000
000000
000000
ENDCHAR

STARTCHAR CODE091
ENCODING 91
SWIDTH 451 0
DWIDTH 24 0
BBX 24 48 0 -6
BITMAP
000000
000000
000000
000000
000000
01FF00
01FF00
01FF00
01E000
01E000
01E000
01E000
01E000
01E000
01E000
01E000
01E000
01E000
01E000
01E000
01E000
01E000
01E000
01E000
01E000
01E000
01E000
01E000
01E000
01E000
01E000
01E000
01E000
01E000
01E000
01E000
01E000
01E000
01E000
01E000
01E000
01E000
01FF00
01FF00
01FF00
000000
000000
000000
ENDCHAR

STARTCHAR CODE092
ENCODING 92
SWIDTH 451 0
DWIDTH 24 0
BBX 24 48 0 -6
BITMAP
000000
000000
000000
000000
000000
FCFF3F
FCFF3F
787E1E
783C1C
7C3C1C
3C3C1C
3C3C1C
3C3C1C
FFFFFF
FFFFFF
FFFFFF
1E3E38
1E3E38
1E3F38
1F7F78
0F7F70
0F7F70
0F7F70
FFFFFF
FFFFFF
FFFFFF
07E7E0
07E7E0
07E7E0
07E7E0
03C3C0
03C3C0
03C3C0
03C3C0
03C3C0
018180
018180
018180
000000
000000
000000
000000
000000
000000
000000
000000
000000
000000
ENDCHAR

STARTCHAR CODE093
ENCODING 93
SWIDTH 451 0
DWIDTH 24 0
BBX 24 48 0 -6
BITMAP
000000
000000
000000
000000
000000
01FF00
01FF00
01FF00
000F00
000F00
000F00
000F00
000F00
000F00
000F00
000F00
000F00
000F00
000F00
000F00
000F00
000F00
000F00
000F00
000F00
000F00
000F00
000F00
000F00
000F00
000F00
000F00
000F00
000F00
000F00
000F00
000F00
000F00
000F00
000F00
000F00
000F00
01FF00
01FF00
01FF00
000000
000000
000000
ENDCHAR

STARTCHAR CODE094
ENCODING 94
SWIDTH 451 0
DWIDTH 24 0
BBX 24 48 0 -6
BITMAP
000000
000000
000000
000000
000000
003C00
007E00
00FF00
00FF00
01FF80
03E7C0
03C3E0
0781E0
0F00F0
0E0070
1C0038
180018
000000
000000
000000
000000
000000
000000
000000
000000
000000
000000
000000
000000
000000
000000
000000
000000
000000
000000
000000
000000
000000
000000
000000
000000
000000
000000
000000
000000
000000
000000
000000
ENDCHAR

STARTCHAR CODE095
ENCODING 95
SWIDTH 451 0
DWIDTH 24 0
BBX 24 48 0 -6
BITMAP
000000
000000
000000
000000
000000
000000
000000
000000
000000
000000
000000
000000
000000
000000
000000
000000
000000
000000
000000
000000
000000
000000
000000
000000
000000
000000
000000
000000
000000
000000
000000
000000
000000
000000
000000
000000
000000
000000
000000
7FFFFE
7FFFFE
7FFFFE
7FFFFE
000000
000000
000000
000000
000000
ENDCHAR

STARTCHAR CODE096
ENCODING 96
SWIDTH 451 0
DWIDTH 24 0
BBX 24 48 0 -6
BITMAP
000000
000000
000000
000000
00E000
01F000
01F000
01F800
00F800
007C00
003C00
001E00
000E00
000000
000000
000000
000000
000000
000000
000000
000000
000000
000000
000000
000000
000000
000000
000000
000000
000000
000000
000000
000000
000000
000000
000000
000000
000000
000000
000000
000000
000000
000000
000000
000000
000000
000000
000000
ENDCHAR

STARTCHAR CODE097
ENCODING 97
SWIDTH 451 0
DWIDTH 24 0
BBX 24 48 0 -6
BITMAP
000000
000000
000000
000000
000000
000000
000000
000000
000000
000000
000000
000000
000000
000000
03FF00
0FFFC0
1FFFE0
3F07E0
3F01F0
3F00F0
3F00F0
1E00F0
0000F0
001FF0
00FFF0
03FFF0
07F8F0
0FE0F0
1F80F0
1F00F0
3F00F0
3E00F0
3E01F0
3F07F6
1FDFFE
1FFFFE
0FFEFC
03F878
000000
000000
000000
000000
000000
000000
000000
000000
000000
000000
ENDCHAR

STARTCHAR CODE098
ENCODING 98
SWIDTH 451 0
DWIDTH 24 0
BBX 24 48 0 -6
BITMAP
000000
000000
000000
0E0000
3E0000
FE0000
FE0000
FE0000
3E0000
1E0000
1E0000
1E0000
1E0000
1E0000
1E0000
1E3F80
1EFFE0
1FFFF0
1FFFF8
1FE3F8
1F80FC
1F007C
1E007C
1E003C
1E003C
1E003C
1E003C
1E003C
1E003C
1E003C
1E007C
1E007C
1E00F8
1F01F8
1FC7F0
0FFFE0
07FF80
01FE00
000000
000000
000000
000000
000000
000000
000000
000000
000000
000000
ENDCHAR

STARTCHAR CODE099
ENCODING 99
SWIDTH 451 0
DWIDTH 24 0
BBX 24 48 0 -6
BITMAP
000000
000000
000000
000000
000000
000000
000000
000000
000000
000000
000000
000000
000000
000000
007FC0
01FFF0
03FFF8
07E1FC
0F80FC
1F00FC
1F00FC
3E0078
3E0000
3C0000
3C0000
3C0000
3C0000
3C0000
3C0000
3E000C
3E001C
3F003C
1F8078
1FE1F8
0FFFF0
07FFE0
03FFC0
00FF00
000000
000000
000000
000000
000000
000000
000000
000000
000000
000000
ENDCHAR

STARTCHAR CODE100
ENCODING 100
SWIDTH 451 0
DWIDTH 24 0
BBX 24 48 0 -6
BITMAP
000000
000000
000000
000000
000038
0000F8
0003F8
0003F8
0003F8
000078
000078
000078
000078
000078
01FC78
07FF78
0FFFF8
1FC7F8
1F01F8
3E00F8
3C0078
7C0078
7C0078
780078
780078
780078
780078
780078
780078
7C0078
7C0078
3E00F8
3E01F8
1F87FC
1FFFFE
0FFFFE
07FF78
01FC60
000000
000000
000000
000000
000000
000000
000000
000000
000000
000000
ENDCHAR

STARTCHAR CODE101
ENCODING 101
SWIDTH 451 0
DWIDTH 24 0
BBX 24 48 0 -6
BITMAP
000000
000000
000000
000000
000000
000000
000000
000000
000000
000000
000000
000000
000000
000000
00FF00
03FFC0
07FFE0
0FC7F0
1F01F8
1E00F8
3E007C
3C007C
3C003C
3FFFFC
3FFFFC
3FFFFC
3C0000
3C0000
3C0000
3E000C
3E001C
3F003C
1F80F8
1FE3F8
0FFFF0
07FFE0
03FFC0
00FF00
000000
000000
000000
000000
000000
000000
000000
000000
000000
000000
ENDCHAR

STARTCHAR CODE102
ENCODING 102
SWIDTH 451 0
DWIDTH 24 0
BBX 24 48 0 -6
BITMAP
000000
000000
000000
000000
001FC0
007FE0
007FF0
00F9F0
00F1F0
00F0E0
00F000
00F000
00F000
00F000
00F000
0FFFC0
0FFFC0
0FFFC0
00F000
00F000
00F000
00F000
00F000
00F000
00F000
00F000
00F000
00F000
00F000
00F000
00F000
00F000
00F000
00F000
01F800
07FE00
07FE00
000000
000000
000000
000000
000000
000000
000000
000000
000000
000000
000000
ENDCHAR

STARTCHAR CODE103
ENCODING 103
SWIDTH 451 0
DWIDTH 24 0
BBX 24 48 0 -6
BITMAP
000000
000000
000000
000000
000000
000000
000000
000000
000000
000000
000000
000000
000000
000000
01FF80
07FFFC
0FFFFC
0FC7FC
1F01F0
1F01F0
1E00F0
1E00F0
1E00F0
1E00F0
1F01F0
1F01E0
0FC7E0
0FFFC0
07FF80
0FFE00
1F0000
1E0000
1F0000
1FFFC0
1FFFF0
1FFFF8
1FFFF8
3E00FC
3C003C
78001C
78001C
7C003C
7F00FC
3FFFF8
3FFFF8
1FFFF0
07FFC0
000000
ENDCHAR

STARTCHAR CODE104
ENCODING 104
SWIDTH 451 0
DWIDTH 24 0
BBX 24 48 0 -6
BITMAP
000000
000000
000000
000000
0E0000
3E0000
FE0000
FE0000
FE0000
3E0000
1E0000
1E0000
1E0000
1E0000
1E1F80
1E7FE0
1EFFF0
1FFFF0
1FE3F8
1F80F8
1F00F8
1F0078
1E0078
1E0078
1E0078
1E0078
1E0078
1E0078
1E0078
1E0078
1E0078
1E0078
1E0078
1E0078
3F00FC
7F81FE
7F81FE
000000
000000
000000
000000
000000
000000
000000
000000
000000
000000
000000
ENDCHAR

STARTCHAR CODE105
ENCODING 105
SWIDTH 451 0
DWIDTH 24 0
BBX 24 48 0 -6
BITMAP
000000
000000
000000
000000
001C00
003E00
003E00
003E00
003E00
001C00
000000
000000
000000
000000
000E00
003E00
00FE00
00FE00
00FE00
003E00
001E00
001E00
001E00
001E00
001E00
001E00
001E00
001E00
001E00
001E00
001E00
001E00
001E00
001E00
003F00
00FFC0
00FFC0
000000
000000
000000
000000
000000
000000
000000
000000
000000
000000
000000
ENDCHAR

STARTCHAR CODE106
ENCODING 106
SWIDTH 451 0
DWIDTH 24 0
BBX 24 48 0 -6
BITMAP
000000
000000
000000
000000
001C00
003E00
003E00
003E00
003E00
001C00
000000
000000
000000
000000
000E00
003E00
00FE00
00FE00
00FE00
003E00
001E00
001E00
001E00
001E00
001E00
001E00
001E00
001E00
001E00
001E00
001E00
001E00
001E00
001E00
001E00
001E00
001E00
001E00
001E00
001E00
001E00
0E1E00
1F1E00
1F3E00
1FFC00
0FFC00
07F000
000000
ENDCHAR

STARTCHAR CODE107
ENCODING 107
SWIDTH 451 0
DWIDTH 24 0
BBX 24 48 0 -6
BITMAP
000000
000000
000000
000000
0E0000
3E0000
FE0000
FE0000
FE0000
1E0000
1E0000
1E0000
1E0000
1E0000
1E03FC
1E03FC
1E01F0
1E03E0
1E07C0
1E0F80
1E1F00
1E3E00
1E7C00
1EFC00
1FFC00
1FFE00
1FFF00
1F9F00
1F0F80
1E0FC0
1E07C0
1E03E0
1E03F0
1E01F8
3F00F8
7F83FE
7F83FE
000000
000000
000000
000000
000000
000000
000000
000000
000000
000000
000000
ENDCHAR

STARTCHAR CODE108
ENCODING 108
SWIDTH 451 0
DWIDTH 24 0
BBX 24 48 0 -6
BITMAP
000000
000000
000000
000000
00FC00
00FC00
00FC00
003C00
003C00
003C00
003C00
003C00
003C00
003C00
003C00
003C00
003C00
003C00
003C00
003C00
003C00
003C00
003C00
003C00
003C00
003C00
003C00
003C00
003C00
003C00
003C00
003C00
003C00
003C00
007E00
01FF80
01FF80
000000
000000
000000
000000
000000
000000
000000
000000
000000
000000
000000
ENDCHAR

STARTCHAR CODE109
ENCODING 109
SWIDTH 451 0
DWIDTH 24 0
BBX 24 48 0 -6
BITMAP
000000
000000
000000
000000
000000
000000
000000
000000
000000
000000
000000
000000
000000
000000
39F0F8
7BFBFC
FFFFFC
FFFFFE
7E7F3E
7C3E1E
7C3E1E
783C1E
783C1E
783C1E
783C1E
783C1E
783C1E
783C1E
783C1E
783C1E
783C1E
783C1E
783C1E
783C1E
783C1E
FC7E3F
FC7E3F
000000
000000
000000
000000
000000
000000
000000
000000
000000
000000
000000
ENDCHAR

STARTCHAR CODE110
ENCODING 110
SWIDTH 451 0
DWIDTH 24 0
BBX 24 48 0 -6
BITMAP
000000
000000
000000
000000
000000
000000
000000
000000
000000
000000
000000
000000
000000
000000
070F80
0F3FE0
1F7FF0
3FFFF0
3FF1F8
0FC0F8
0F8078
0F8078
0F0078
0F0078
0F0078
0F0078
0F0078
0F0078
0F0078
0F0078
0F0078
0F0078
0F0078
0F0078
1F80FC
3FC1FE
3FC1FE
000000
000000
000000
000000
000000
000000
000000
000000
000000
000000
000000
ENDCHAR

STARTCHAR CODE111
ENCODING 111
SWIDTH 451 0
DWIDTH 24 0
BBX 24 48 0 -6
BITMAP
000000
000000
000000
000000
000000
000000
000000
000000
000000
000000
000000
000000
000000
000000
00FF00
03FFC0
07FFE0
0FC3F0
1F00F8
1E0078
3E007C
3C003C
3C003C
3C003C
3C003C
3C003C
3C003C
3C003C
3C003C
3C003C
3C003C
3E007C
1E0078
1F00F8
0FC3F0
07FFE0
03FFC0
00FF00
000000
000000
000000
000000
000000
000000
000000
000000
000000
000000
ENDCHAR

STARTCHAR CODE112
ENCODING 112
SWIDTH 451 0
DWIDTH 24 0
BBX 24 48 0 -6
BITMAP
000000
000000
000000
000000
000000
000000
000000
000000
000000
000000
000000
000000
000000
000000
0E3F80
3EFFE0
FFFFF0
FFFFF8
FFC1F8
3F00FC
1E007C
1E007C
1E003C
1E003C
1E003C
1E003C
1E003C
1E003C
1E003C
1E003C
1E007C
1E0078
1F00F8
1FC1F0
1FFFE0
1FFFC0
1E7F00
1E0000
1E0000
1E0000
1E0000
1E0000
1E0000
1E0000
3F0000
FFC000
FFC000
000000
ENDCHAR

STARTCHAR CODE113
ENCODING 113
SWIDTH 451 0
DWIDTH 24 0
BBX 24 48 0 -6
BITMAP
000000
000000
000000
000000
000000
000000
000000
000000
000000
000000
000000
000000
000000
000000
01FC38
07FF78
0FFFF8
1F87F8
1E01F8
3E00F8
3C0078
3C0078
3C0078
3C0078
3C0078
3C0078
3C0078
3C0078
3C0078
3E0078
3E0078
3F00F8
1FC3F8
1FFFF8
0FFFF8
07FF78
01FC78
000078
000078
000078
000078
000078
000078
000078
0000FC
0003FF
0003FF
000000
ENDCHAR

STARTCHAR CODE114
ENCODING 114
SWIDTH 451 0
DWIDTH 24 0
BBX 24 48 0 -6
BITMAP
000000
000000
000000
000000
000000
000000
000000
000000
000000
000000
000000
000000
000000
000000
0383E0
0F8FF0
3FBFF0
3FFFF0
3FFFF0
0FF1E0
07C000
078000
078000
078000
078000
078000
078000
078000
078000
078000
078000
078000
078000
078000
0FC000
1FE000
1FE000
000000
000000
000000
000000
000000
000000
000000
000000
000000
000000
000000
ENDCHAR

STARTCHAR CODE115
ENCODING 115
SWIDTH 451 0
DWIDTH 24 0
BBX 24 48 0 -6
BITMAP
000000
000000
000000
000000
000000
000000
000000
000000
000000
000000
000000
000000
000000
000000
01FF30
07FFF0
0FFFF0
0FC3F0
1F00F0
1E0070
1E0030
1F0030
1FC000
1FF800
0FFF00
07FFC0
01FFE0
003FF0
0007F0
1801F8
1800F8
1C0078
1E0078
1F00F8
1FC1F8
1FFFF0
1BFFE0
00FF80
000000
000000
000000
000000
000000
000000
000000
000000
000000
000000
ENDCHAR

STARTCHAR CODE116
ENCODING 116
SWIDTH 451 0
DWIDTH 24 0
BBX 24 48 0 -6
BITMAP
000000
000000
000000
000000
000000
000000
000000
000000
000000
000000
00E000
00E000
01E000
01E000
03E000
0FFF80
0FFF80
0FFF80
01E000
01E000
01E000
01E000
01E000
01E000
01E000
01E000
01E000
01E000
01E000
01E000
01E000
01F000
01F060
01F9E0
00FFE0
00FFC0
007F80
003E00
000000
000000
000000
000000
000000
000000
000000
000000
000000
000000
ENDCHAR

STARTCHAR CODE117
ENCODING 117
SWIDTH 451 0
DWIDTH 24 0
BBX 24 48 0 -6
BITMAP
000000
000000
000000
000000
000000
000000
000000
000000
000000
000000
000000
000000
000000
000000
000000
7E03F0
7E03F0
3E01F0
1E00F0
1E00F0
1E00F0
1E00F0
1E00F0
1E00F0
1E00F0
1E00F0
1E00F0
1E00F0
1E00F0
1E00F0
1E00F0
1F00F0
1F01F0
1F87F0
0FFFFC
0FFFFC
07FEF8
01F8E0
000000
000000
000000
000000
000000
000000
000000
000000
000000
000000
ENDCHAR

STARTCHAR CODE118
ENCODING 118
SWIDTH 451 0
DWIDTH 24 0
BBX 24 48 0 -6
BITMAP
000000
000000
000000
000000
000000
000000
000000
000000
000000
000000
000000
000000
000000
000000
000000
FF807F
FF807F
3E001C
1F003C
1F0038
0F8038
0F8078
07C070
07C070
03E0F0
03E0E0
01F0E0
01F1E0
00F9C0
00F9C0
007FC0
007F80
003F80
003F80
001F00
001F00
000E00
000E00
000000
000000
000000
000000
000000
000000
000000
000000
000000
000000
ENDCHAR

STARTCHAR CODE119
ENCODING 119
SWIDTH 451 0
DWIDTH 24 0
BBX 24 48 0 -6
BITMAP
000000
000000
000000
000000
000000
000000
000000
000000
000000
000000
000000
000000
000000
000000
000000
FDFE7F
FDFE7F
78781C
78783C
787838
7C7C38
3C7C78
3C7C70
3C7C70
3EFEF0
1EFEE0
1EFEE0
1FFFE0
1FDFC0
1FDFC0
0FCFC0
0F8F80
0F8F80
0F8F80
070700
070700
070700
070700
000000
000000
000000
000000
000000
000000
000000
000000
000000
000000
ENDCHAR

STARTCHAR CODE120
ENCODING 120
SWIDTH 451 0
DWIDTH 24 0
BBX 24 48 0 -6
BITMAP
000000
000000
000000
000000
000000
000000
000000
000000
000000
000000
000000
000000
000000
000000
000000
7FC3FC
7FC3FC
1F80E0
0F81E0
07C3C0
07E380
03E780
01FF00
01FE00
00FE00
007E00
007E00
007F00
00FF80
01EF80
01C7C0
03C7E0
0783E0
0701F0
0F01F8
7F83FE
7F83FE
000000
000000
000000
000000
000000
000000
000000
000000
000000
000000
000000
ENDCHAR

STARTCHAR CODE121
ENCODING 121
SWIDTH 451 0
DWIDTH 24 0
BBX 24 48 0 -6
BITMAP
000000
000000
000000
000000
000000
000000
000000
000000
000000
000000
000000
000000
000000
000000
000000
FF807F
FF807F
3E001C
1F003C
1F0038
0F8038
0F8078
07C070
07C070
03E0F0
03E0E0
01F0E0
01F1E0
00F9C0
00F9C0
007FC0
007F80
003F80
003F80
001F00
001F00
000F00
000E00
001E00
001C00
003C00
003800
0F7800
1FF000
1FE000
1FC000
0F8000
000000
ENDCHAR

STARTCHAR CODE122
ENCODING 122
SWIDTH 451 0
DWIDTH 24 0
BBX 24 48 0 -6
BITMAP
000000
000000
000000
000000
000000
000000
000000
000000
000000
000000
000000
000000
000000
000000
000000
1FFFF8
1FFFF8
1FFFF8
1C03F0
1C03E0
1807C0
180FC0
001F80
001F00
003E00
007E00
00FC00
00F800
01F000
03F000
07E00C
07C00C
0F801C
1F801C
3FFFFC
3FFFFC
3FFFFC
000000
000000
000000
000000
000000
000000
000000
000000
000000
000000
000000
ENDCHAR

STARTCHAR CODE123
ENCODING 123
SWIDTH 451 0
DWIDTH 24 0
BBX 24 48 0 -6
BITMAP
000000
000000
000000
000000
000780
000F80
001E00
001E00
003C00
003C00
003C00
003C00
003C00
003C00
003C00
003C00
003C00
003C00
003C00
003C00
003C00
007C00
007800
00F800
01F000
01F000
00F800
007800
007C00
003C00
003C00
003C00
003C00
003C00
003C00
003C00
003C00
003C00
003C00
003C00
003C00
003C00
001E00
001E00
000F80
000780
000000
000000
ENDCHAR

STARTCHAR CODE124
ENCODING 124
SWIDTH 451 0
DWIDTH 24 0
BBX 24 48 0 -6
BITMAP
000000
000000
000000
000000
003C00
003C00
003C00
003C00
003C00
003C00
003C00
003C00
003C00
003C00
003C00
003C00
003C00
003C00
003C00
003C00
003C00
003C00
003C00
003C00
003C00
003C00
003C00
003C00
003C00
003C00
003C00
003C00
003C00
003C00
003C00
003C00
003C00
003C00
000000
000000
000000
000000
000000
000000
000000
000000
000000
000000
ENDCHAR

STARTCHAR CODE125
ENCODING 125
SWIDTH 451 0
DWIDTH 24 0
BBX 24 48 0 -6
BITMAP
000000
000000
000000
000000
01E000
01F000
007800
007800
003C00
003C00
003C00
003C00
003C00
003C00
003C00
003C00
003C00
003C00
003C00
003C00
003C00
003E00
001E00
001F00
000F80
000F80
001F00
001E00
003E00
003C00
003C00
003C00
003C00
003C00
003C00
003C00
003C00
003C00
003C00
003C00
003C00
003C00
007800
007800
01F000
01E000
000000
000000
ENDCHAR

STARTCHAR CODE126
ENCODING 126
SWIDTH 451 0
DWIDTH 24 0
BBX 24 48 0 -6
BITMAP
000000
000000
000000
000000
000000
000000
000000
000000
000000
000000
000000
000000
000000
000000
000000
000000
000000
000000
000000
000000
07E00C
1FF81C
3FFE7C
3FFFF8
7CFFF8
703FF0
600FC0
000000
000000
000000
000000
000000
000000
000000
000000
000000
000000
000000
000000
000000
000000
000000
000000
000000
000000
000000
000000
000000
ENDCHAR

STARTCHAR CODE127
ENCODING 127
SWIDTH 451 0
DWIDTH 24 0
BBX 24 48 0 -6
BITMAP
000000
000000
000000
000000
000000
000000
000000
000000
000000
000000
000000
000000
000000
000000
000000
000000
000000
000000
000000
000000
000000
000000
000000
000000
000000
000000
000000
000000
000000
000000
000000
000000
000000
000000
000000
000000
000000
000000
000000
000000
000000
000000
000000
000000
000000
000000
000000
000000
ENDCHAR

STARTCHAR CODE128
ENCODING 128
SWIDTH 451 0
DWIDTH 24 0
BBX 24 48 0 -6
BITMAP
000000
000000
000000
000000
007FC6
01FFF6
03FFFE
07F0FE
0FC03E
0F801E
1F000E
1F000E
3E0006
3E0006
3E0000
7E0000
7C0000
7C0000
7C0000
7C0000
7C0000
7C0000
7C0000
7C0000
7C0000
7E0000
3E0000
3E0000
3E0000
1F0006
1F000E
0F801E
0FC03E
07F0FC
03FFF8
01FFF0
00FFC0
001C00
003800
007E00
00FF00
00FF80
000F80
000780
001F80
00FF00
00FE00
000000
ENDCHAR

STARTCHAR CODE129
ENCODING 129
SWIDTH 451 0
DWIDTH 24 0
BBX 24 48 0 -6
BITMAP
000000
000000
000000
000000
000000
000000
000000
038380
07C7C0
07C7C0
07C7C0
07C7C0
038380
000000
000000
7E03F0
7E03F0
3E01F0
1E00F0
1E00F0
1E00F0
1E00F0
1E00F0
1E00F0
1E00F0
1E00F0
1E00F0
1E00F0
1E00F0
1E00F0
1E00F0
1F00F0
1F01F0
1F87F0
0FFFFC
0FFFFC
07FEF8
01F8E0
000000
000000
000000
000000
000000
000000
000000
000000
000000
000000
ENDCHAR

STARTCHAR CODE130
ENCODING 130
SWIDTH 451 0
DWIDTH 24 0
BBX 24 48 0 -6
BITMAP
000000
000000
000000
000000
000700
000F80
000F80
001F80
001F00
003E00
003C00
007800
007000
006000
00FF00
03FFC0
07FFE0
0FC7F0
1F01F8
1E00F8
3E007C
3C007C
3C003C
3FFFFC
3FFFFC
3FFFFC
3C0000
3C0000
3C0000
3E000C
3E001C
3F003C
1F80F8
1FE3F8
0FFFF0
07FFE0
03FFC0
00FF00
000000
000000
000000
000000
000000
000000
000000
000000
000000
000000
ENDCHAR

STARTCHAR CODE131
ENCODING 131
SWIDTH 451 0
DWIDTH 24 0
BBX 24 48 0 -6
BITMAP
000000
000000
000000
000000
003000
007800
00FC00
00FC00
01FE00
01FE00
03CF00
038700
030300
000000
03FF00
0FFFC0
1FFFE0
3F07E0
3F01F0
3F00F0
3F00F0
1E00F0
0000F0
001FF0
00FFF0
03FFF0
07F8F0
0FE0F0
1F80F0
1F00F0
3F00F0
3E00F0
3E01F0
3F07F6
1FDFFE
1FFFFE
0FFEFC
03F878
000000
000000
000000
000000
000000
000000
000000
000000
000000
000000
ENDCHAR

STARTCHAR CODE132
ENCODING 132
SWIDTH 451 0
DWIDTH 24 0
BBX 24 48 0 -6
BITMAP
000000
000000
000000
000000
000000
000000
000000
038380
07C7C0
07C7C0
07C7C0
07C7C0
038380
000000
03FF00
0FFFC0
1FFFE0
3F07E0
3F01F0
3F00F0
3F00F0
1E00F0
0000F0
001FF0
00FFF0
03FFF0
07F8F0
0FE0F0
1F80F0
1F00F0
3F00F0
3E00F0
3E01F0
3F07F6
1FDFFE
1FFFFE
0FFEFC
03F878
000000
000000
000000
000000
000000
000000
000000
000000
000000
000000
ENDCHAR

STARTCHAR CODE133
ENCODING 133
SWIDTH 451 0
DWIDTH 24 0
BBX 24 48 0 -6
BITMAP
000000
000000
000000
000000
00E000
01F000
01F000
01F800
00F800
007C00
003C00
001E00
000E00
000600
03FF00
0FFFC0
1FFFE0
3F07E0
3F01F0
3F00F0
3F00F0
1E00F0
0000F0
001FF0
00FFF0
03FFF0
07F8F0
0FE0F0
1F80F0
1F00F0
3F00F0
3E00F0
3E01F0
3F07F6
1FDFFE
1FFFFE
0FFEFC
03F878
000000
000000
000000
000000
000000
000000
000000
000000
000000
000000
ENDCHAR

STARTCHAR CODE134
ENCODING 134
SWIDTH 451 0
DWIDTH 24 0
BBX 24 48 0 -6
BITMAP
000000
000000
000000
003C00
00FF00
00FF00
01E780
01C380
01C380
01E780
00FF00
00FF00
003C00
000000
03FF00
0FFFC0
1FFFE0
3F07E0
3F01F0
3F00F0
3F00F0
1E00F0
0000F0
001FF0
00FFF0
03FFF0
07F8F0
0FE0F0
1F80F0
1F00F0
3F00F0
3E00F0
3E01F0
3F07F6
1FDFFE
1FFFFE
0FFEFC
03F878
000000
000000
000000
000000
000000
000000
000000
000000
000000
000000
ENDCHAR

STARTCHAR CODE135
ENCODING 135
SWIDTH 451 0
DWIDTH 24 0
BBX 24 48 0 -6
BITMAP
000000
000000
000000
000000
000000
000000
000000
000000
000000
000000
000000
000000
000000
000000
007FC0
01FFF0
03FFF8
07E1FC
0F80FC
1F00FC
1F00FC
3E0078
3E0000
3C0000
3C0000
3C0000
3C0000
3C0000
3C0000
3E000C
3E001C
3F003C
1F8078
1FE1F8
0FFFF0
07FFE0
03FFC0
00FF00
003000
007F00
007F80
007F80
000780
000780
003F80
01FF00
01FE00
000000
ENDCHAR

STARTCHAR CODE136
ENCODING 136
SWIDTH 451 0
DWIDTH 24 0
BBX 24 48 0 -6
BITMAP
000000
000000
000000
000000
001800
003C00
007E00
007E00
00FF00
00FF00
01E780
01C380
018180
000000
00FF00
03FFC0
07FFE0
0FC7F0
1F01F8
1E00F8
3E007C
3C007C
3C003C
3FFFFC
3FFFFC
3FFFFC
3C0000
3C0000
3C0000
3E000C
3E001C
3F003C
1F80F8
1FE3F8
0FFFF0
07FFE0
03FFC0
00FF00
000000
000000
000000
000000
000000
000000
000000
000000
000000
000000
ENDCHAR

STARTCHAR CODE137
ENCODING 137
SWIDTH 451 0
DWIDTH 24 0
BBX 24 48 0 -6
BITMAP
000000
000000
000000
000000
000000
000000
000000
01C1C0
03E3E0
03E3E0
03E3E0
03E3E0
01C1C0
000000
00FF00
03FFC0
07FFE0
0FC7F0
1F01F8
1E00F8
3E007C
3C007C
3C003C
3FFFFC
3FFFFC
3FFFFC
3C0000
3C0000
3C0000
3E000C
3E001C
3F003C
1F80F8
1FE3F8
0FFFF0
07FFE0
03FFC0
00FF00
000000
000000
000000
000000
000000
000000
000000
000000
000000
000000
ENDCHAR

STARTCHAR CODE138
ENCODING 138
SWIDTH 451 0
DWIDTH 24 0
BBX 24 48 0 -6
BITMAP
000000
000000
000000
000000
00E000
01F000
01F000
01F800
00F800
007C00
003C00
001E00
000E00
000600
00FF00
03FFC0
07FFE0
0FC7F0
1F01F8
1E00F8
3E007C
3C007C
3C003C
3FFFFC
3FFFFC
3FFFFC
3C0000
3C0000
3C0000
3E000C
3E001C
3F003C
1F80F8
1FE3F8
0FFFF0
07FFE0
03FFC0
00FF00
000000
000000
000000
000000
000000
000000
000000
000000
000000
000000
ENDCHAR

STARTCHAR CODE139
ENCODING 139
SWIDTH 451 0
DWIDTH 24 0
BBX 24 48 0 -6
BITMAP
000000
000000
000000
000000
000000
000000
000000
01C1C0
03E3E0
03E3E0
03E3E0
03E3E0
01C1C0
000000
000000
000E00
003E00
00FE00
00FE00
00FE00
001E00
001E00
001E00
001E00
001E00
001E00
001E00
001E00
001E00
001E00
001E00
001E00
001E00
001E00
003F00
00FFC0
00FFC0
000000
000000
000000
000000
000000
000000
000000
000000
000000
000000
000000
ENDCHAR

STARTCHAR CODE140
ENCODING 140
SWIDTH 451 0
DWIDTH 24 0
BBX 24 48 0 -6
BITMAP
000000
000000
000000
000000
001800
003C00
007E00
007E00
00FF00
00FF00
01E780
01C380
018180
000000
000000
000E00
003E00
00FE00
00FE00
00FE00
001E00
001E00
001E00
001E00
001E00
001E00
001E00
001E00
001E00
001E00
001E00
001E00
001E00
001E00
003F00
00FFC0
00FFC0
000000
000000
000000
000000
000000
000000
000000
000000
000000
000000
000000
ENDCHAR

STARTCHAR CODE141
ENCODING 141
SWIDTH 451 0
DWIDTH 24 0
BBX 24 48 0 -6
BITMAP
000000
000000
000000
000000
00E000
01F000
01F000
01F800
00F800
007C00
003C00
001E00
000E00
000600
000000
000E00
003E00
00FE00
00FE00
00FE00
001E00
001E00
001E00
001E00
001E00
001E00
001E00
001E00
001E00
001E00
001E00
001E00
001E00
001E00
003F00
00FFC0
00FFC0
000000
000000
000000
000000
000000
000000
000000
000000
000000
000000
000000
ENDCHAR

STARTCHAR CODE142
ENCODING 142
SWIDTH 451 0
DWIDTH 24 0
BBX 24 48 0 -6
BITMAP
07C7C0
07C7C0
07C7C0
07C7C0
038380
000000
003800
003800
003800
007C00
007C00
007C00
00FE00
00FE00
00FE00
00FF00
01FF00
01CF00
01CF00
01CF80
03C780
038780
0387C0
0387C0
0783C0
07FFE0
07FFE0
07FFE0
0FFFE0
0E01F0
0E01F0
0E00F0
1E00F8
1C00F8
3E00FC
FF83FF
FF83FF
000000
000000
000000
000000
000000
000000
000000
000000
000000
000000
000000
ENDCHAR

STARTCHAR CODE143
ENCODING 143
SWIDTH 451 0
DWIDTH 24 0
BBX 24 48 0 -6
BITMAP
00FE00
00FE00
00EE00
00FE00
00FE00
007C00
000000
003800
003800
007C00
007C00
007C00
00FE00
00FE00
00FE00
00FF00
01FF00
01CF00
01CF00
01CF80
03C780
038780
0387C0
0387C0
0783C0
07FFE0
07FFE0
07FFE0
0FFFE0
0E01F0
0E01F0
0E00F0
1E00F8
1C00F8
3E00FC
FF83FF
FF83FF
000000
000000
000000
000000
000000
000000
000000
000000
000000
000000
000000
ENDCHAR

STARTCHAR CODE144
ENCODING 144
SWIDTH 451 0
DWIDTH 24 0
BBX 24 48 0 -6
BITMAP
000F00
001F00
001F00
003E00
003C00
007800
007000
000000
FFFFF8
FFFFF8
3FFFF8
1E0078
1E0038
1E0018
1E0018
1E0000
1E0000
1E0000
1E0030
1E0030
1E0070
1FFFF0
1FFFF0
1FFFF0
1E0070
1E0030
1E0030
1E0000
1E0000
1E0000
1E000C
1E000C
1E001C
1E003C
3FFFFC
FFFFFC
FFFFFC
000000
000000
000000
000000
000000
000000
000000
000000
000000
000000
000000
ENDCHAR

STARTCHAR CODE145
ENCODING 145
SWIDTH 451 0
DWIDTH 24 0
BBX 24 48 0 -6
BITMAP
000000
000000
000000
000000
000000
000000
000000
000000
000000
000000
000000
000000
000000
000000
07E3E0
1FFFF8
3FFFFC
7EFF7C
7C7E3E
783C1E
783C1E
783C1E
003C1E
01FFFE
07FFFE
0FFFFE
1FBC00
3E3C00
3C3C00
7C3C00
783C00
783E06
787E0E
787F9E
7DFFFC
3FFFFC
3FE7F8
1F81E0
000000
000000
000000
000000
000000
000000
000000
000000
000000
000000
ENDCHAR

STARTCHAR CODE146
ENCODING 146
SWIDTH 451 0
DWIDTH 24 0
BBX 24 48 0 -6
BITMAP
000000
000000
000000
000000
000000
01FFFE
01FFFE
007FFE
00FE0E
00FE06
00FE06
01DE06
01DE00
01DE00
03DE00
039E18
039E18
039E18
079E38
071FF8
071FF8
071FF8
0FFE38
0FFE18
0FFE18
0E1E18
1E1E00
1C1E00
1C1E00
1C1E03
3C1E03
381E03
381E07
381E07
783F1F
FCFFFF
FCFFFF
000000
000000
000000
000000
000000
000000
000000
000000
000000
000000
000000
ENDCHAR

STARTCHAR CODE147
ENCODING 147
SWIDTH 451 0
DWIDTH 24 0
BBX 24 48 0 -6
BITMAP
000000
000000
000000
000000
001800
003C00
007E00
007E00
00FF00
00FF00
01E780
01C380
018180
000000
00FF00
03FFC0
07FFE0
0FC3F0
1F00F8
1E0078
3E007C
3C003C
3C003C
3C003C
3C003C
3C003C
3C003C
3C003C
3C003C
3C003C
3C003C
3E007C
1E0078
1F00F8
0FC3F0
07FFE0
03FFC0
00FF00
000000
000000
000000
000000
000000
000000
000000
000000
000000
000000
ENDCHAR

STARTCHAR CODE148
ENCODING 148
SWIDTH 451 0
DWIDTH 24 0
BBX 24 48 0 -6
BITMAP
000000
000000
000000
000000
000000
000000
000000
01C1C0
03E3E0
03E3E0
03E3E0
03E3E0
01C1C0
000000
00FF00
03FFC0
07FFE0
0FC3F0
1F00F8
1E0078
3E007C
3C003C
3C003C
3C003C
3C003C
3C003C
3C003C
3C003C
3C003C
3C003C
3C003C
3E007C
1E0078
1F00F8
0FC3F0
07FFE0
03FFC0
00FF00
000000
000000
000000
000000
000000
000000
000000
000000
000000
000000
ENDCHAR

STARTCHAR CODE149
ENCODING 149
SWIDTH 451 0
DWIDTH 24 0
BBX 24 48 0 -6
BITMAP
000000
000000
000000
000000
01C000
03E000
03E000
03F000
01F000
00F800
007800
003C00
001C00
000C00
00FF00
03FFC0
07FFE0
0FC3F0
1F00F8
1E0078
3E007C
3C003C
3C003C
3C003C
3C003C
3C003C
3C003C
3C003C
3C003C
3C003C
3C003C
3E007C
1E0078
1F00F8
0FC3F0
07FFE0
03FFC0
00FF00
000000
000000
000000
000000
000000
000000
000000
000000
000000
000000
ENDCHAR

STARTCHAR CODE150
ENCODING 150
SWIDTH 451 0
DWIDTH 24 0
BBX 24 48 0 -6
BITMAP
000000
000000
000000
000000
003000
007800
00FC00
00FC00
01FE00
01FE00
03CF00
038700
030300
000000
000000
7E03F0
7E03F0
3E01F0
1E00F0
1E00F0
1E00F0
1E00F0
1E00F0
1E00F0
1E00F0
1E00F0
1E00F0
1E00F0
1E00F0
1E00F0
1E00F0
1F00F0
1F01F0
1F87F0
0FFFFC
0FFFFC
07FEF8
01F8E0
000000
000000
000000
000000
000000
000000
000000
000000
000000
000000
ENDCHAR

STARTCHAR CODE151
ENCODING 151
SWIDTH 451 0
DWIDTH 24 0
BBX 24 48 0 -6
BITMAP
000000
000000
000000
000000
01C000
03E000
03E000
03F000
01F000
00F800
007800
003C00
001C00
000C00
000000
7E03F0
7E03F0
3E01F0
1E00F0
1E00F0
1E00F0
1E00F0
1E00F0
1E00F0
1E00F0
1E00F0
1E00F0
1E00F0
1E00F0
1E00F0
1E00F0
1F00F0
1F01F0
1F87F0
0FFFFC
0FFFFC
07FEF8
01F8E0
000000
000000
000000
000000
000000
000000
000000
000000
000000
000000
ENDCHAR

STARTCHAR CODE152
ENCODING 152
SWIDTH 451 0
DWIDTH 24 0
BBX 24 48 0 -6
BITMAP
000000
000000
000000
000000
000000
000000
000000
01C1C0
03E3E0
03E3E0
03E3E0
03E3E0
01C1C0
000000
000000
FF807F
FF807F
3E001C
1F003C
1F0038
0F8038
0F8078
07C070
07C070
03E0F0
03E0E0
01F0E0
01F1E0
00F9C0
00F9C0
007FC0
007F80
003F80
003F80
001F00
001F00
000F00
000E00
001E00
001C00
003C00
003800
0F7800
1FF000
1FE000
1FC000
0F8000
000000
ENDCHAR

STARTCHAR CODE153
ENCODING 153
SWIDTH 451 0
DWIDTH 24 0
BBX 24 48 0 -6
BITMAP
07C7C0
07C7C0
07C7C0
07C7C0
038380
000000
00FF00
03FFC0
0FFFF0
1FC3F8
1F00F8
3E007C
3E007C
7C003E
7C003E
7C003E
F8001F
F8001F
F8001F
F8001F
F8001F
F8001F
F8001F
F8001F
F8001F
F8001F
F8001F
F8001F
7C003E
7C003E
7C003E
3E007C
3E007C
1F00F8
1FC3F8
0FFFF0
03FFC0
00FF00
000000
000000
000000
000000
000000
000000
000000
000000
000000
000000
ENDCHAR

STARTCHAR CODE154
ENCODING 154
SWIDTH 451 0
DWIDTH 24 0
BBX 24 48 0 -6
BITMAP
07C7C0
07C7C0
07C7C0
07C7C0
038380
000000
FFC1FF
FFC1FF
7F007C
3E0038
3E0038
3E0038
3E0038
3E0038
3E0038
3E0038
3E0038
3E0038
3E0038
3E0038
3E0038
3E0038
3E0038
3E0038
3E0038
3E0038
3E0038
3E0038
3E0038
3E0038
3E0038
3F0078
3F0078
1F80F8
1FE3F0
0FFFF0
07FFE0
01FF80
000000
000000
000000
000000
000000
000000
000000
000000
000000
000000
ENDCHAR

STARTCHAR CODE155
ENCODING 155
SWIDTH 451 0
DWIDTH 24 0
BBX 24 48 0 -6
BITMAP
000000
000000
000000
000000
000000
000000
000000
000000
000000
000380
000380
000380
000380
000700
007FC0
01FFF0
03FFF8
07EFFC
0F8EFC
1F0EFC
1F0EFC
3E1C78
3E1C00
3C1C00
3C1C00
3C1C00
3C3800
3C3800
3C3800
3E3800
3E381C
3F703C
1FF07C
1FF1F8
0FFFF0
07FFE0
03FFC0
00FF00
00E000
01C000
01C000
01C000
01C000
01C000
000000
000000
000000
000000
ENDCHAR

STARTCHAR CODE156
ENCODING 156
SWIDTH 451 0
DWIDTH 24 0
BBX 24 48 0 -6
BITMAP
000000
000000
000000
000000
001FC0
007FF0
00FDF8
00F07C
01E07C
01E07C
03C07C
03C038
03C000
03C000
03C000
03C000
03C000
03C000
03C000
3FFF80
3FFF80
3FFF80
3FFF80
03C000
03C000
03C000
03C000
03C000
03C000
01C000
1FC000
3FE00C
7FF81C
73FFFC
73FFFC
7FFFF8
7F3FF0
3E0FC0
000000
000000
000000
000000
000000
000000
000000
000000
000000
000000
ENDCHAR

STARTCHAR CODE157
ENCODING 157
SWIDTH 451 0
DWIDTH 24 0
BBX 24 48 0 -6
BITMAP
000000
000000
000000
000000
000000
FF80FF
FF80FF
3E003C
3F0078
1F0078
1F80F0
0F80F0
0FC1E0
07C1E0
07E3C0
03E3C0
03F780
01F780
01FF00
00FF00
0FFFF8
0FFFF8
0FFFF8
003C00
003C00
003C00
0FFFF8
0FFFF8
0FFFF8
003C00
003C00
003C00
003C00
003C00
007E00
01FF80
01FF80
000000
000000
000000
000000
000000
000000
000000
000000
000000
000000
000000
ENDCHAR

STARTCHAR CODE158
ENCODING 158
SWIDTH 451 0
DWIDTH 24 0
BBX 24 48 0 -6
BITMAP
000000
000000
000000
000000
000000
3BE000
7FF000
FFF800
FFF800
3E7C00
3C3C00
3C3C00
3C3C00
3C3C00
3C3C60
3C3C60
3C3CE0
3C3DE0
3C3FFE
3C3FFE
3C3FFE
3C79E0
3C79E0
3EF9E0
3FF1E0
3FF1E0
3FE1E0
3C01E0
3C01E0
3C01E0
3C01E0
3C01E0
3C01E3
3C01F7
7E01FF
FF80FE
FF80FC
000078
000000
000000
000000
000000
000000
000000
000000
000000
000000
000000
ENDCHAR

STARTCHAR CODE159
ENCODING 159
SWIDTH 451 0
DWIDTH 24 0
BBX 24 48 0 -6
BITMAP
000000
000000
000000
000000
0001F0
0003F8
0007BC
00077C
000E7C
000E7C
000E38
001E00
001E00
001E00
001E00
001E00
001E00
03FFF0
03FFF0
03FFF0
003C00
003C00
003C00
003C00
003C00
003C00
003C00
007800
007800
007800
007800
007800
007800
007800
007800
007800
007800
007000
007000
007000
1C7000
3E7000
3EF000
3EE000
3DE000
1FC000
0F8000
000000
ENDCHAR

STARTCHAR CODE160
ENCODING 160
SWIDTH 451 0
DWIDTH 24 0
BBX 24 48 0 -6
BITMAP
000000
000000
000000
000000
000700
000F80
000F80
001F80
001F00
003E00
003C00
007800
007000
006000
03FF00
0FFFC0
1FFFE0
3F07E0
3F01F0
3F00F0
3F00F0
1E00F0
0000F0
001FF0
00FFF0
03FFF0
07F8F0
0FE0F0
1F80F0
1F00F0
3F00F0
3E00F0
3E01F0
3F07F6
1FDFFE
1FFFFE
0FFEFC
03F878
000000
000000
000000
000000
000000
000000
000000
000000
000000
000000
ENDCHAR

STARTCHAR CODE161
ENCODING 161
SWIDTH 451 0
DWIDTH 24 0
BBX 24 48 0 -6
BITMAP
000000
000000
000000
000000
000380
0007C0
0007C0
000FC0
000F80
001F00
001E00
003C00
003800
003000
000000
000E00
003E00
00FE00
00FE00
00FE00
001E00
001E00
001E00
001E00
001E00
001E00
001E00
001E00
001E00
001E00
001E00
001E00
001E00
001E00
003F00
00FFC0
00FFC0
000000
000000
000000
000000
000000
000000
000000
000000
000000
000000
000000
ENDCHAR

STARTCHAR CODE162
ENCODING 162
SWIDTH 451 0
DWIDTH 24 0
BBX 24 48 0 -6
BITMAP
000000
000000
000000
000000
000700
000F80
000F80
001F80
001F00
003E00
003C00
007800
007000
006000
00FF00
03FFC0
07FFE0
0FC3F0
1F00F8
1E0078
3E007C
3C003C
3C003C
3C003C
3C003C
3C003C
3C003C
3C003C
3C003C
3C003C
3C003C
3E007C
1E0078
1F00F8
0FC3F0
07FFE0
03FFC0
00FF00
000000
000000
000000
000000
000000
000000
000000
000000
000000
000000
ENDCHAR

STARTCHAR CODE163
ENCODING 163
SWIDTH 451 0
DWIDTH 24 0
BBX 24 48 0 -6
BITMAP
000000
000000
000000
000000
000700
000F80
000F80
001F80
001F00
003E00
003C00
007800
007000
006000
000000
7E03F0
7E03F0
3E01F0
1E00F0
1E00F0
1E00F0
1E00F0
1E00F0
1E00F0
1E00F0
1E00F0
1E00F0
1E00F0
1E00F0
1E00F0
1E00F0
1F00F0
1F01F0
1F87F0
0FFFFC
0FFFFC
07FEF8
01F8E0
000000
000000
000000
000000
000000
000000
000000
000000
000000
000000
ENDCHAR

STARTCHAR CODE164
ENCODING 164
SWIDTH 451 0
DWIDTH 24 0
BBX 24 48 0 -6
BITMAP
000000
000000
000000
000000
000000
000000
00F0C0
01F9C0
03FFC0
03FFC0
039F80
030F00
000000
000000
070F80
0F3FE0
1F7FF0
3FFFF0
3FF1F8
0FC0F8
0F8078
0F8078
0F0078
0F0078
0F0078
0F0078
0F0078
0F0078
0F0078
0F0078
0F0078
0F0078
0F0078
0F0078
1F80FC
3FC1FE
3FC1FE
000000
000000
000000
000000
000000
000000
000000
000000
000000
000000
000000
ENDCHAR

STARTCHAR CODE165
ENCODING 165
SWIDTH 451 0
DWIDTH 24 0
BBX 24 48 0 -6
BITMAP
01F9C0
03FFC0
03FFC0
039F80
030F00
000000
FF01FF
FF81FF
3F807C
1FC038
1FC038
1FE038
1FE038
1DF038
1DF038
1CF838
1CF838
1C7C38
1C7C38
1C3E38
1C3E38
1C3F38
1C1F38
1C0FB8
1C0FB8
1C07F8
1C07F8
1C03F8
1C03F8
1C01F8
1C01F8
1C00F8
1C00F8
1C0078
3E0078
FF8038
FF8038
000000
000000
000000
000000
000000
000000
000000
000000
000000
000000
000000
ENDCHAR

STARTCHAR CODE166
ENCODING 166
SWIDTH 451 0
DWIDTH 24 0
BBX 24 48 0 -6
BITMAP
000000
000000
000000
000000
00FF00
03FF80
07CFC0
0783C0
0781C0
071FC0
00FFC0
03F9C0
07E1C0
0783C0
0787C0
07FFC0
07FFF0
03FDF0
00F0E0
000000
01FFC0
01FFC0
01FFC0
000000
000000
000000
000000
000000
000000
000000
000000
000000
000000
000000
000000
000000
000000
000000
000000
000000
000000
000000
000000
000000
000000
000000
000000
000000
ENDCHAR

STARTCHAR CODE167
ENCODING 167
SWIDTH 451 0
DWIDTH 24 0
BBX 24 48 0 -6
BITMAP
000000
000000
000000
000000
007E00
01FF80
03FFC0
03E7C0
0781E0
0781E0
0700E0
0700E0
0700E0
0781E0
0781E0
03E7C0
03FFC0
01FF80
007E00
000000
01FFC0
01FFC0
01FFC0
000000
000000
000000
000000
000000
000000
000000
000000
000000
000000
000000
000000
000000
000000
000000
000000
000000
000000
000000
000000
000000
000000
000000
000000
000000
ENDCHAR

STARTCHAR CODE168
ENCODING 168
SWIDTH 451 0
DWIDTH 24 0
BBX 24 48 0 -6
BITMAP
000000
000000
000000
000000
000000
000000
000000
000000
000000
000000
000000
000000
000000
003C00
007E00
007E00
007E00
007E00
003C00
000000
000000
001C00
001C00
001C00
003C00
003800
007800
007800
00F000
01F000
03E000
07C000
0F8000
0F8000
1F0000
1F0000
1E0078
1E00FC
1E00FC
1E00FC
1F00FC
1F007C
0F80F8
0FE3F8
07FFF0
03FFE0
00FF80
000000
ENDCHAR

STARTCHAR CODE169
ENCODING 169
SWIDTH 451 0
DWIDTH 24 0
BBX 24 48 0 -6
BITMAP
000000
000000
000000
000000
000000
000000
000000
000000
000000
000000
000000
000000
000000
000000
000000
000000
000000
000000
3FFFFC
3FFFFC
3FFFFC
380000
380000
380000
380000
380000
380000
380000
380000
000000
000000
000000
000000
000000
000000
000000
000000
000000
000000
000000
000000
000000
000000
000000
000000
000000
000000
000000
ENDCHAR

STARTCHAR CODE170
ENCODING 170
SWIDTH 451 0
DWIDTH 24 0
BBX 24 48 0 -6
BITMAP
000000
000000
000000
000000
000000
000000
000000
000000
000000
000000
000000
000000
000000
000000
000000
000000
000000
000000
3FFFFC
3FFFFC
3FFFFC
00001C
00001C
00001C
00001C
00001C
00001C
00001C
00001C
000000
000000
000000
000000
000000
000000
000000
000000
000000
000000
000000
000000
000000
000000
000000
000000
000000
000000
000000
ENDCHAR

STARTCHAR CODE171
ENCODING 171
SWIDTH 451 0
DWIDTH 24 0
BBX 24 48 0 -6
BITMAP
000000
001C00
003C00
007C00
00FC00
00FC00
003C00
003C00
003C00
003C00
003C00
003C00
003C00
003C00
003C00
003C00
007E00
01FF80
01FF80
000000
000000
7FFFFE
7FFFFE
7FFFFE
7FFFFE
000000
00FE00
03FF80
07FFC0
0FCFE0
0F03E0
0E01E0
0C01E0
0003E0
0007C0
000FC0
003F80
00FF00
01FC30
03F030
07C070
0FFFF0
0FFFF0
0FFFF0
000000
000000
000000
000000
ENDCHAR

STARTCHAR CODE172
ENCODING 172
SWIDTH 451 0
DWIDTH 24 0
BBX 24 48 0 -6
BITMAP
000000
001C00
003C00
007C00
00FC00
00FC00
003C00
003C00
003C00
003C00
003C00
003C00
003C00
003C00
003C00
003C00
007E00
01FF80
01FF80
000000
000000
7FFFFE
7FFFFE
7FFFFE
7FFFFE
000000
000700
000F00
001F00
003F00
007F00
00FF00
01FF00
03EF00
07CF00
0F8F00
1F0F00
1FFFE0
1FFFE0
1FFFE0
1FFFE0
000F00
000F00
000F00
000F00
000000
000000
000000
ENDCHAR

STARTCHAR CODE173
ENCODING 173
SWIDTH 451 0
DWIDTH 24 0
BBX 24 48 0 -6
BITMAP
000000
000000
000000
000000
000000
000000
000000
000000
000000
000000
000000
000000
000000
001C00
003E00
003E00
003E00
003E00
001C00
000000
000000
000000
001C00
001C00
001C00
001C00
003E00
003E00
003E00
003E00
003E00
003E00
003E00
003E00
003E00
003E00
003E00
003E00
003E00
003E00
003E00
003E00
003E00
003E00
003E00
003E00
001C00
000000
ENDCHAR

STARTCHAR CODE174
ENCODING 174
SWIDTH 451 0
DWIDTH 24 0
BBX 24 48 0 -6
BITMAP
000000
000000
000000
000000
000000
000000
000000
000000
000000
000000
000000
000000
000000
000000
000000
000000
001830
003870
0078F0
00F1E0
01E3C0
03E7C0
07CF80
0F9F00
1FBF00
1F3E00
1FBF00
0F9F00
07CF80
03E7C0
01E3C0
00F1E0
0078F0
003870
001830
000000
000000
000000
000000
000000
000000
000000
000000
000000
000000
000000
000000
000000
ENDCHAR

STARTCHAR CODE175
ENCODING 175
SWIDTH 451 0
DWIDTH 24 0
BBX 24 48 0 -6
BITMAP
000000
000000
000000
000000
000000
000000
000000
000000
000000
000000
000000
000000
000000
000000
000000
000000
0C1800
0E1C00
0F1E00
078F00
03C780
03E7C0
01F3E0
00F9F0
00FDF8
007CF8
00FDF8
00F9F0
01F3E0
03E7C0
03C780
078F00
0F1E00
0E1C00
0C1800
000000
000000
000000
000000
000000
000000
000000
000000
000000
000000
000000
000000
000000
ENDCHAR

STARTCHAR CODE176
ENCODING 176
SWIDTH 451 0
DWIDTH 24 0
BBX 24 48 0 -6
BITMAP
666666
666666
000000
000000
666666
666666
000000
000000
666666
666666
000000
000000
666666
666666
000000
000000
666666
666666
000000
000000
666666
666666
000000
000000
666666
666666
000000
000000
666666
666666
000000
000000
666666
666666
000000
000000
666666
666666
000000
000000
666666
666666
000000
000000
666666
666666
000000
000000
ENDCHAR

STARTCHAR CODE177
ENCODING 177
SWIDTH 451 0
DWIDTH 24 0
BBX 24 48 0 -6
BITMAP
30C30C
79E79E
79E79E
30C30C
000000
000000
30C30C
79E79E
79E79E
30C30C
000000
000000
30C30C
79E79E
79E79E
30C30C
000000
000000
30C30C
79E79E
79E79E
30C30C
000000
000000
30C30C
79E79E
79E79E
30C30C
000000
000000
30C30C
79E79E
79E79E
30C30C
000000
000000
30C30C
79E79E
79E79E
30C30C
000000
000000
30C30C
79E79E
79E79E
30C30C
000000
000000
ENDCHAR

STARTCHAR CODE178
ENCODING 178
SWIDTH 451 0
DWIDTH 24 0
BBX 24 48 0 -6
BITMAP
38E38E
7DF7DF
7DF7DF
7DF7DF
38E38E
000000
38E38E
7DF7DF
7DF7DF
7DF7DF
38E38E
000000
38E38E
7DF7DF
7DF7DF
7DF7DF
38E38E
000000
38E38E
7DF7DF
7DF7DF
7DF7DF
38E38E
000000
38E38E
7DF7DF
7DF7DF
7DF7DF
38E38E
000000
38E38E
7DF7DF
7DF7DF
7DF7DF
38E38E
000000
38E38E
7DF7DF
7DF7DF
7DF7DF
38E38E
000000
38E38E
7DF7DF
7DF7DF
7DF7DF
38E38E
000000
ENDCHAR

STARTCHAR CODE179
ENCODING 179
SWIDTH 451 0
DWIDTH 24 0
BBX 24 48 0 -6
BITMAP
001C00
001C00
001C00
001C00
001C00
001C00
001C00
001C00
001C00
001C00
001C00
001C00
001C00
001C00
001C00
001C00
001C00
001C00
001C00
001C00
001C00
001C00
001C00
001C00
001C00
001C00
001C00
001C00
001C00
001C00
001C00
001C00
001C00
001C00
001C00
001C00
001C00
001C00
001C00
001C00
001C00
001C00
001C00
001C00
001C00
001C00
001C00
001C00
ENDCHAR

STARTCHAR CODE180
ENCODING 180
SWIDTH 451 0
DWIDTH 24 0
BBX 24 48 0 -6
BITMAP
001C00
001C00
001C00
001C00
001C00
001C00
001C00
001C00
001C00
001C00
001C00
001C00
001C00
001C00
001C00
001C00
001C00
001C00
001C00
001C00
001C00
001C00
FFFC00
FFFC00
FFFC00
001C00
001C00
001C00
001C00
001C00
001C00
001C00
001C00
001C00
001C00
001C00
001C00
001C00
001C00
001C00
001C00
001C00
001C00
001C00
001C00
001C00
001C00
001C00
ENDCHAR

STARTCHAR CODE181
ENCODING 181
SWIDTH 451 0
DWIDTH 24 0
BBX 24 48 0 -6
BITMAP
001C00
001C00
001C00
001C00
001C00
001C00
001C00
001C00
001C00
001C00
001C00
001C00
001C00
001C00
001C00
001C00
001C00
001C00
001C00
FFFC00
FFFC00
FFFC00
001C00
001C00
001C00
FFFC00
FFFC00
FFFC00
001C00
001C00
001C00
001C00
001C00
001C00
001C00
001C00
001C00
001C00
001C00
001C00
001C00
001C00
001C00
001C00
001C00
001C00
001C00
001C00
ENDCHAR

STARTCHAR CODE182
ENCODING 182
SWIDTH 451 0
DWIDTH 24 0
BBX 24 48 0 -6
BITMAP
00E380
00E380
00E380
00E380
00E380
00E380
00E380
00E380
00E380
00E380
00E380
00E380
00E380
00E380
00E380
00E380
00E380
00E380
00E380
00E380
00E380
00E380
FFE380
FFE380
FFE380
00E380
00E380
00E380
00E380
00E380
00E380
00E380
00E380
00E380
00E380
00E380
00E380
00E380
00E380
00E380
00E380
00E380
00E380
00E380
00E380
00E380
00E380
00E380
ENDCHAR

STARTCHAR CODE183
ENCODING 183
SWIDTH 451 0
DWIDTH 24 0
BBX 24 48 0 -6
BITMAP
000000
000000
000000
000000
000000
000000
000000
000000
000000
000000
000000
000000
000000
000000
000000
000000
000000
000000
000000
000000
000000
000000
FFFF80
FFFF80
FFFF80
00E380
00E380
00E380
00E380
00E380
00E380
00E380
00E380
00E380
00E380
00E380
00E380
00E380
00E380
00E380
00E380
00E380
00E380
00E380
00E380
00E380
00E380
00E380
ENDCHAR

STARTCHAR CODE184
ENCODING 184
SWIDTH 451 0
DWIDTH 24 0
BBX 24 48 0 -6
BITMAP
000000
000000
000000
000000
000000
000000
000000
000000
000000
000000
000000
000000
000000
000000
000000
000000
000000
000000
000000
FFFC00
FFFC00
FFFC00
001C00
001C00
001C00
FFFC00
FFFC00
FFFC00
001C00
001C00
001C00
001C00
001C00
001C00
001C00
001C00
001C00
001C00
001C00
001C00
001C00
001C00
001C00
001C00
001C00
001C00
001C00
001C00
ENDCHAR

STARTCHAR CODE185
ENCODING 185
SWIDTH 451 0
DWIDTH 24 0
BBX 24 48 0 -6
BITMAP
00E380
00E380
00E380
00E380
00E380
00E380
00E380
00E380
00E380
00E380
00E380
00E380
00E380
00E380
00E380
00E380
00E380
00E380
00E380
FFE380
FFE380
FFE380
000380
000380
000380
FFE380
FFE380
FFE380
00E380
00E380
00E380
00E380
00E380
00E380
00E380
00E380
00E380
00E380
00E380
00E380
00E380
00E380
00E380
00E380
00E380
00E380
00E380
00E380
ENDCHAR

STARTCHAR CODE186
ENCODING 186
SWIDTH 451 0
DWIDTH 24 0
BBX 24 48 0 -6
BITMAP
00E380
00E380
00E380
00E380
00E380
00E380
00E380
00E380
00E380
00E380
00E380
00E380
00E380
00E380
00E380
00E380
00E380
00E380
00E380
00E380
00E380
00E380
00E380
00E380
00E380
00E380
00E380
00E380
00E380
00E380
00E380
00E380
00E380
00E380
00E380
00E380
00E380
00E380
00E380
00E380
00E380
00E380
00E380
00E380
00E380
00E380
00E380
00E380
ENDCHAR

STARTCHAR CODE187
ENCODING 187
SWIDTH 451 0
DWIDTH 24 0
BBX 24 48 0 -6
BITMAP
000000
000000
000000
000000
000000
000000
000000
000000
000000
000000
000000
000000
000000
000000
000000
000000
000000
000000
000000
FFFF80
FFFF80
FFFF80
000380
000380
000380
FFE380
FFE380
FFE380
00E380
00E380
00E380
00E380
00E380
00E380
00E380
00E380
00E380
00E380
00E380
00E380
00E380
00E380
00E380
00E380
00E380
00E380
00E380
00E380
ENDCHAR

STARTCHAR CODE188
ENCODING 188
SWIDTH 451 0
DWIDTH 24 0
BBX 24 48 0 -6
BITMAP
00E380
00E380
00E380
00E380
00E380
00E380
00E380
00E380
00E380
00E380
00E380
00E380
00E380
00E380
00E380
00E380
00E380
00E380
00E380
FFE380
FFE380
FFE380
000380
000380
000380
FFFF80
FFFF80
FFFF80
000000
000000
000000
000000
000000
000000
000000
000000
000000
000000
000000
000000
000000
000000
000000
000000
000000
000000
000000
000000
ENDCHAR

STARTCHAR CODE189
ENCODING 189
SWIDTH 451 0
DWIDTH 24 0
BBX 24 48 0 -6
BITMAP
00E380
00E380
00E380
00E380
00E380
00E380
00E380
00E380
00E380
00E380
00E380
00E380
00E380
00E380
00E380
00E380
00E380
00E380
00E380
00E380
00E380
00E380
FFFF80
FFFF80
FFFF80
000000
000000
000000
000000
000000
000000
000000
000000
000000
000000
000000
000000
000000
000000
000000
000000
000000
000000
000000
000000
000000
000000
000000
ENDCHAR

STARTCHAR CODE190
ENCODING 190
SWIDTH 451 0
DWIDTH 24 0
BBX 24 48 0 -6
BITMAP
001C00
001C00
001C00
001C00
001C00
001C00
001C00
001C00
001C00
001C00
001C00
001C00
001C00
001C00
001C00
001C00
001C00
001C00
001C00
FFFC00
FFFC00
FFFC00
001C00
001C00
001C00
FFFC00
FFFC00
FFFC00
000000
000000
000000
000000
000000
000000
000000
000000
000000
000000
000000
000000
000000
000000
000000
000000
000000
000000
000000
000000
ENDCHAR

STARTCHAR CODE191
ENCODING 191
SWIDTH 451 0
DWIDTH 24 0
BBX 24 48 0 -6
BITMAP
000000
000000
000000
000000
000000
000000
000000
000000
000000
000000
000000
000000
000000
000000
000000
000000
000000
000000
000000
000000
000000
000000
FFFC00
FFFC00
FFFC00
001C00
001C00
001C00
001C00
001C00
001C00
001C00
001C00
001C00
001C00
001C00
001C00
001C00
001C00
001C00
001C00
001C00
001C00
001C00
001C00
001C00
001C00
001C00
ENDCHAR

STARTCHAR CODE192
ENCODING 192
SWIDTH 451 0
DWIDTH 24 0
BBX 24 48 0 -6
BITMAP
001C00
001C00
001C00
001C00
001C00
001C00
001C00
001C00
001C00
001C00
001C00
001C00
001C00
001C00
001C00
001C00
001C00
001C00
001C00
001C00
001C00
001C00
001FFF
001FFF
001FFF
000000
000000
000000
000000
000000
000000
000000
000000
000000
000000
000000
000000
000000
000000
000000
000000
000000
000000
000000
000000
000000
000000
000000
ENDCHAR

STARTCHAR CODE193
ENCODING 193
SWIDTH 451 0
DWIDTH 24 0
BBX 24 48 0 -6
BITMAP
001C00
001C00
001C00
001C00
001C00
001C00
001C00
001C00
001C00
001C00
001C00
001C00
001C00
001C00
001C00
001C00
001C00
001C00
001C00
001C00
001C00
001C00
FFFFFF
FFFFFF
FFFFFF
000000
000000
000000
000000
000000
000000
000000
000000
000000
000000
000000
000000
000000
000000
000000
000000
000000
000000
000000
000000
000000
000000
000000
ENDCHAR

STARTCHAR CODE194
ENCODING 194
SWIDTH 451 0
DWIDTH 24 0
BBX 24 48 0 -6
BITMAP
000000
000000
000000
000000
000000
000000
000000
000000
000000
000000
000000
000000
000000
000000
000000
000000
000000
000000
000000
000000
000000
000000
FFFFFF
FFFFFF
FFFFFF
001C00
001C00
001C00
001C00
001C00
001C00
001C00
001C00
001C00
001C00
001C00
001C00
001C00
001C00
001C00
001C00
001C00
001C00
001C00
001C00
001C00
001C00
001C00
ENDCHAR

STARTCHAR CODE195
ENCODING 195
SWIDTH 451 0
DWIDTH 24 0
BBX 24 48 0 -6
BITMAP
001C00
001C00
001C00
001C00
001C00
001C00
001C00
001C00
001C00
001C00
001C00
001C00
001C00
001C00
001C00
001C00
001C00
001C00
001C00
001C00
001C00
001C00
001FFF
001FFF
001FFF
001C00
001C00
001C00
001C00
001C00
001C00
001C00
001C00
001C00
001C00
001C00
001C00
001C00
001C00
001C00
001C00
001C00
001C00
001C00
001C00
001C00
001C00
001C00
ENDCHAR

STARTCHAR CODE196
ENCODING 196
SWIDTH 451 0
DWIDTH 24 0
BBX 24 48 0 -6
BITMAP
000000
000000
000000
000000
000000
000000
000000
000000
000000
000000
000000
000000
000000
000000
000000
000000
000000
000000
000000
000000
000000
000000
FFFFFF
FFFFFF
FFFFFF
000000
000000
000000
000000
000000
000000
000000
000000
000000
000000
000000
000000
000000
000000
000000
000000
000000
000000
000000
000000
000000
000000
000000
ENDCHAR

STARTCHAR CODE197
ENCODING 197
SWIDTH 451 0
DWIDTH 24 0
BBX 24 48 0 -6
BITMAP
001C00
001C00
001C00
001C00
001C00
001C00
001C00
001C00
001C00
001C00
001C00
001C00
001C00
001C00
001C00
001C00
001C00
001C00
001C00
001C00
001C00
001C00
FFFFFF
FFFFFF
FFFFFF
001C00
001C00
001C00
001C00
001C00
001C00
001C00
001C00
001C00
001C00
001C00
001C00
001C00
001C00
001C00
001C00
001C00
001C00
001C00
001C00
001C00
001C00
001C00
ENDCHAR

STARTCHAR CODE198
ENCODING 198
SWIDTH 451 0
DWIDTH 24 0
BBX 24 48 0 -6
BITMAP
001C00
001C00
001C00
001C00
001C00
001C00
001C00
001C00
001C00
001C00
001C00
001C00
001C00
001C00
001C00
001C00
001C00
001C00
001C00
001FFF
001FFF
001FFF
001C00
001C00
001C00
001FFF
001FFF
001FFF
001C00
001C00
001C00
001C00
001C00
001C00
001C00
001C00
001C00
001C00
001C00
001C00
001C00
001C00
001C00
001C00
001C00
001C00
001C00
001C00
ENDCHAR

STARTCHAR CODE199
ENCODING 199
SWIDTH 451 0
DWIDTH 24 0
BBX 24 48 0 -6
BITMAP
00E380
00E380
00E380
00E380
00E380
00E380
00E380
00E380
00E380
00E380
00E380
00E380
00E380
00E380
00E380
00E380
00E380
00E380
00E380
00E380
00E380
00E380
00E3FF
00E3FF
00E3FF
00E380
00E380
00E380
00E380
00E380
00E380
00E380
00E380
00E380
00E380
00E380
00E380
00E380
00E380
00E380
00E380
00E380
00E380
00E380
00E380
00E380
00E380
00E380
ENDCHAR

STARTCHAR CODE200
ENCODING 200
SWIDTH 451 0
DWIDTH 24 0
BBX 24 48 0 -6
BITMAP
00E380
00E380
00E380
00E380
00E380
00E380
00E380
00E380
00E380
00E380
00E380
00E380
00E380
00E380
00E380
00E380
00E380
00E380
00E380
00E3FF
00E3FF
00E3FF
00E000
00E000
00E000
00FFFF
00FFFF
00FFFF
000000
000000
000000
000000
000000
000000
000000
000000
000000
000000
000000
000000
000000
000000
000000
000000
000000
000000
000000
000000
ENDCHAR

STARTCHAR CODE201
ENCODING 201
SWIDTH 451 0
DWIDTH 24 0
BBX 24 48 0 -6
BITMAP
000000
000000
000000
000000
000000
000000
000000
000000
000000
000000
000000
000000
000000
000000
000000
000000
000000
000000
000000
00FFFF
00FFFF
00FFFF
00E000
00E000
00E000
00E3FF
00E3FF
00E3FF
00E380
00E380
00E380
00E380
00E380
00E380
00E380
00E380
00E380
00E380
00E380
00E380
00E380
00E380
00E380
00E380
00E380
00E380
00E380
00E380
ENDCHAR

STARTCHAR CODE202
ENCODING 202
SWIDTH 451 0
DWIDTH 24 0
BBX 24 48 0 -6
BITMAP
00E380
00E380
00E380
00E380
00E380
00E380
00E380
00E380
00E380
00E380
00E380
00E380
00E380
00E380
00E380
00E380
00E380
00E380
00E380
FFE3FF
FFE3FF
FFE3FF
000000
000000
000000
FFFFFF
FFFFFF
FFFFFF
000000
000000
000000
000000
000000
000000
000000
000000
000000
000000
000000
000000
000000
000000
000000
000000
000000
000000
000000
000000
ENDCHAR

STARTCHAR CODE203
ENCODING 203
SWIDTH 451 0
DWIDTH 24 0
BBX 24 48 0 -6
BITMAP
000000
000000
000000
000000
000000
000000
000000
000000
000000
000000
000000
000000
000000
000000
000000
000000
000000
000000
000000
FFFFFF
FFFFFF
FFFFFF
000000
000000
000000
FFE3FF
FFE3FF
FFE3FF
00E380
00E380
00E380
00E380
00E380
00E380
00E380
00E380
00E380
00E380
00E380
00E380
00E380
00E380
00E380
00E380
00E380
00E380
00E380
00E380
ENDCHAR

STARTCHAR CODE204
ENCODING 204
SWIDTH 451 0
DWIDTH 24 0
BBX 24 48 0 -6
BITMAP
00E380
00E380
00E380
00E380
00E380
00E380
00E380
00E380
00E380
00E380
00E380
00E380
00E380
00E380
00E380
00E380
00E380
00E380
00E380
00E3FF
00E3FF
00E3FF
00E000
00E000
00E000
00E3FF
00E3FF
00E3FF
00E380
00E380
00E380
00E380
00E380
00E380
00E380
00E380
00E380
00E380
00E380
00E380
00E380
00E380
00E380
00E380
00E380
00E380
00E380
00E380
ENDCHAR

STARTCHAR CODE205
ENCODING 205
SWIDTH 451 0
DWIDTH 24 0
BBX 24 48 0 -6
BITMAP
000000
000000
000000
000000
000000
000000
000000
000000
000000
000000
000000
000000
000000
000000
000000
000000
000000
000000
000000
FFFFFF
FFFFFF
FFFFFF
000000
000000
000000
FFFFFF
FFFFFF
FFFFFF
000000
000000
000000
000000
000000
000000
000000
000000
000000
000000
000000
000000
000000
000000
000000
000000
000000
000000
000000
000000
ENDCHAR

STARTCHAR CODE206
ENCODING 206
SWIDTH 451 0
DWIDTH 24 0
BBX 24 48 0 -6
BITMAP
00E380
00E380
00E380
00E380
00E380
00E380
00E380
00E380
00E380
00E380
00E380
00E380
00E380
00E380
00E380
00E380
00E380
00E380
00E380
FFE3FF
FFE3FF
FFE3FF
000000
000000
000000
FFE3FF
FFE3FF
FFE3FF
00E380
00E380
00E380
00E380
00E380
00E380
00E380
00E380
00E380
00E380
00E380
00E380
00E380
00E380
00E380
00E380
00E380
00E380
00E380
00E380
ENDCHAR

STARTCHAR CODE207
ENCODING 207
SWIDTH 451 0
DWIDTH 24 0
BBX 24 48 0 -6
BITMAP
001C00
001C00
001C00
001C00
001C00
001C00
001C00
001C00
001C00
001C00
001C00
001C00
001C00
001C00
001C00
001C00
001C00
001C00
001C00
FFFFFF
FFFFFF
FFFFFF
000000
000000
000000
FFFFFF
FFFFFF
FFFFFF
000000
000000
000000
000000
000000
000000
000000
000000
000000
000000
000000
000000
000000
000000
000000
000000
000000
000000
000000
000000
ENDCHAR

STARTCHAR CODE208
ENCODING 208
SWIDTH 451 0
DWIDTH 24 0
BBX 24 48 0 -6
BITMAP
00E380
00E380
00E380
00E380
00E380
00E380
00E380
00E380
00E380
00E380
00E380
00E380
00E380
00E380
00E380
00E380
00E380
00E380
00E380
00E380
00E380
00E380
FFFFFF
FFFFFF
FFFFFF
000000
000000
000000
000000
000000
000000
000000
000000
000000
000000
000000
000000
000000
000000
000000
000000
000000
000000
000000
000000
000000
000000
000000
ENDCHAR

STARTCHAR CODE209
ENCODING 209
SWIDTH 451 0
DWIDTH 24 0
BBX 24 48 0 -6
BITMAP
000000
000000
000000
000000
000000
000000
000000
000000
000000
000000
000000
000000
000000
000000
000000
000000
000000
000000
000000
FFFFFF
FFFFFF
FFFFFF
000000
000000
000000
FFFFFF
FFFFFF
FFFFFF
001C00
001C00
001C00
001C00
001C00
001C00
001C00
001C00
001C00
001C00
001C00
001C00
001C00
001C00
001C00
001C00
001C00
001C00
001C00
001C00
ENDCHAR

STARTCHAR CODE210
ENCODING 210
SWIDTH 451 0
DWIDTH 24 0
BBX 24 48 0 -6
BITMAP
000000
000000
000000
000000
000000
000000
000000
000000
000000
000000
000000
000000
000000
000000
000000
000000
000000
000000
000000
000000
000000
000000
FFFFFF
FFFFFF
FFFFFF
00E380
00E380
00E380
00E380
00E380
00E380
00E380
00E380
00E380
00E380
00E380
00E380
00E380
00E380
00E380
00E380
00E380
00E380
00E380
00E380
00E380
00E380
00E380
ENDCHAR

STARTCHAR CODE211
ENCODING 211
SWIDTH 451 0
DWIDTH 24 0
BBX 24 48 0 -6
BITMAP
00E380
00E380
00E380
00E380
00E380
00E380
00E380
00E380
00E380
00E380
00E380
00E380
00E380
00E380
00E380
00E380
00E380
00E380
00E380
00E380
00E380
00E380
00FFFF
00FFFF
00FFFF
000000
000000
000000
000000
000000
000000
000000
000000
000000
000000
000000
000000
000000
000000
000000
000000
000000
000000
000000
000000
000000
000000
000000
ENDCHAR

STARTCHAR CODE212
ENCODING 212
SWIDTH 451 0
DWIDTH 24 0
BBX 24 48 0 -6
BITMAP
001C00
001C00
001C00
001C00
001C00
001C00
001C00
001C00
001C00
001C00
001C00
001C00
001C00
001C00
001C00
001C00
001C00
001C00
001C00
001FFF
001FFF
001FFF
001C00
001C00
001C00
001FFF
001FFF
001FFF
000000
000000
000000
000000
000000
000000
000000
000000
000000
000000
000000
000000
000000
000000
000000
000000
000000
000000
000000
000000
ENDCHAR

STARTCHAR CODE213
ENCODING 213
SWIDTH 451 0
DWIDTH 24 0
BBX 24 48 0 -6
BITMAP
000000
000000
000000
000000
000000
000000
000000
000000
000000
000000
000000
000000
000000
000000
000000
000000
000000
000000
000000
001FFF
001FFF
001FFF
001C00
001C00
001C00
001FFF
001FFF
001FFF
001C00
001C00
001C00
001C00
001C00
001C00
001C00
001C00
001C00
001C00
001C00
001C00
001C00
001C00
001C00
001C00
001C00
001C00
001C00
001C00
ENDCHAR

STARTCHAR CODE214
ENCODING 214
SWIDTH 451 0
DWIDTH 24 0
BBX 24 48 0 -6
BITMAP
000000
000000
000000
000000
000000
000000
000000
000000
000000
000000
000000
000000
000000
000000
000000
000000
000000
000000
000000
000000
000000
000000
00FFFF
00FFFF
00FFFF
00E380
00E380
00E380
00E380
00E380
00E380
00E380
00E380
00E380
00E380
00E380
00E380
00E380
00E380
00E380
00E380
00E380
00E380
00E380
00E380
00E380
00E380
00E380
ENDCHAR

STARTCHAR CODE215
ENCODING 215
SWIDTH 451 0
DWIDTH 24 0
BBX 24 48 0 -6
BITMAP
00E380
00E380
00E380
00E380
00E380
00E380
00E380
00E380
00E380
00E380
00E380
00E380
00E380
00E380
00E380
00E380
00E380
00E380
00E380
00E380
00E380
00E380
FFFFFF
FFFFFF
FFFFFF
00E380
00E380
00E380
00E380
00E380
00E380
00E380
00E380
00E380
00E380
00E380
00E380
00E380
00E380
00E380
00E380
00E380
00E380
00E380
00E380
00E380
00E380
00E380
ENDCHAR

STARTCHAR CODE216
ENCODING 216
SWIDTH 451 0
DWIDTH 24 0
BBX 24 48 0 -6
BITMAP
001C00
001C00
001C00
001C00
001C00
001C00
001C00
001C00
001C00
001C00
001C00
001C00
001C00
001C00
001C00
001C00
001C00
001C00
001C00
FFFFFF
FFFFFF
FFFFFF
001C00
001C00
001C00
FFFFFF
FFFFFF
FFFFFF
001C00
001C00
001C00
001C00
001C00
001C00
001C00
001C00
001C00
001C00
001C00
001C00
001C00
001C00
001C00
001C00
001C00
001C00
001C00
001C00
ENDCHAR

STARTCHAR CODE217
ENCODING 217
SWIDTH 451 0
DWIDTH 24 0
BBX 24 48 0 -6
BITMAP
001C00
001C00
001C00
001C00
001C00
001C00
001C00
001C00
001C00
001C00
001C00
001C00
001C00
001C00
001C00
001C00
001C00
001C00
001C00
001C00
001C00
001C00
FFFC00
FFFC00
FFFC00
000000
000000
000000
000000
000000
000000
000000
000000
000000
000000
000000
000000
000000
000000
000000
000000
000000
000000
000000
000000
000000
000000
000000
ENDCHAR

STARTCHAR CODE218
ENCODING 218
SWIDTH 451 0
DWIDTH 24 0
BBX 24 48 0 -6
BITMAP
000000
000000
000000
000000
000000
000000
000000
000000
000000
000000
000000
000000
000000
000000
000000
000000
000000
000000
000000
000000
000000
000000
001FFF
001FFF
001FFF
001C00
001C00
001C00
001C00
001C00
001C00
001C00
001C00
001C00
001C00
001C00
001C00
001C00
001C00
001C00
001C00
001C00
001C00
001C00
001C00
001C00
001C00
001C00
ENDCHAR

STARTCHAR CODE219
ENCODING 219
SWIDTH 451 0
DWIDTH 24 0
BBX 24 48 0 -6
BITMAP
FFFFFF
FFFFFF
FFFFFF
FFFFFF
FFFFFF
FFFFFF
FFFFFF
FFFFFF
FFFFFF
FFFFFF
FFFFFF
FFFFFF
FFFFFF
FFFFFF
FFFFFF
FFFFFF
FFFFFF
FFFFFF
FFFFFF
FFFFFF
FFFFFF
FFFFFF
FFFFFF
FFFFFF
FFFFFF
FFFFFF
FFFFFF
FFFFFF
FFFFFF
FFFFFF
FFFFFF
FFFFFF
FFFFFF
FFFFFF
FFFFFF
FFFFFF
FFFFFF
FFFFFF
FFFFFF
FFFFFF
FFFFFF
FFFFFF
FFFFFF
FFFFFF
FFFFFF
FFFFFF
FFFFFF
FFFFFF
ENDCHAR

STARTCHAR CODE220
ENCODING 220
SWIDTH 451 0
DWIDTH 24 0
BBX 24 48 0 -6
BITMAP
000000
000000
000000
000000
000000
000000
000000
000000
000000
000000
000000
000000
000000
000000
000000
000000
000000
000000
000000
000000
000000
000000
000000
FFFFFF
FFFFFF
FFFFFF
FFFFFF
FFFFFF
FFFFFF
FFFFFF
FFFFFF
FFFFFF
FFFFFF
FFFFFF
FFFFFF
FFFFFF
FFFFFF
FFFFFF
FFFFFF
FFFFFF
FFFFFF
FFFFFF
FFFFFF
FFFFFF
FFFFFF
FFFFFF
FFFFFF
FFFFFF
ENDCHAR

STARTCHAR CODE221
ENCODING 221
SWIDTH 451 0
DWIDTH 24 0
BBX 24 48 0 -6
BITMAP
FFF800
FFF800
FFF800
FFF800
FFF800
FFF800
FFF800
FFF800
FFF800
FFF800
FFF800
FFF800
FFF800
FFF800
FFF800
FFF800
FFF800
FFF800
FFF800
FFF800
FFF800
FFF800
FFF800
FFF800
FFF800
FFF800
FFF800
FFF800
FFF800
FFF800
FFF800
FFF800
FFF800
FFF800
FFF800
FFF800
FFF800
FFF800
FFF800
FFF800
FFF800
FFF800
FFF800
FFF800
FFF800
FFF800
FFF800
FFF800
ENDCHAR

STARTCHAR CODE222
ENCODING 222
SWIDTH 451 0
DWIDTH 24 0
BBX 24 48 0 -6
BITMAP
000FFF
000FFF
000FFF
000FFF
000FFF
000FFF
000FFF
000FFF
000FFF
000FFF
000FFF
000FFF
000FFF
000FFF
000FFF
000FFF
000FFF
000FFF
000FFF
000FFF
000FFF
000FFF
000FFF
000FFF
000FFF
000FFF
000FFF
000FFF
000FFF
000FFF
000FFF
000FFF
000FFF
000FFF
000FFF
000FFF
000FFF
000FFF
000FFF
000FFF
000FFF
000FFF
000FFF
000FFF
000FFF
000FFF
000FFF
000FFF
ENDCHAR

STARTCHAR CODE223
ENCODING 223
SWIDTH 451 0
DWIDTH 24 0
BBX 24 48 0 -6
BITMAP
FFFFFF
FFFFFF
FFFFFF
FFFFFF
FFFFFF
FFFFFF
FFFFFF
FFFFFF
FFFFFF
FFFFFF
FFFFFF
FFFFFF
FFFFFF
FFFFFF
FFFFFF
FFFFFF
FFFFFF
FFFFFF
FFFFFF
FFFFFF
FFFFFF
FFFFFF
FFFFFF
FFFFFF
000000
000000
000000
000000
000000
000000
000000
000000
000000
000000
000000
000000
000000
000000
000000
000000
000000
000000
000000
000000
000000
000000
000000
000000
ENDCHAR

STARTCHAR CODE224
ENCODING 224
SWIDTH 451 0
DWIDTH 24 0
BBX 24 48 0 -6
BITMAP
000000
000000
000000
000000
000000
000000
000000
000000
000000
000000
000000
000000
000000
000000
003C30
00FE78
00FE78
01EF78
01C770
03C770
03C7F0
03C3E0
0783E0
0783E0
0783C0
0783C0
0783C0
0703C0
070380
070380
070780
078700
078700
07CFB0
07FFF0
03FFF0
01FFE0
0079E0
000000
000000
000000
000000
000000
000000
000000
000000
000000
000000
ENDCHAR

STARTCHAR CODE225
ENCODING 225
SWIDTH 451 0
DWIDTH 24 0
BBX 24 48 0 -6
BITMAP
000000
000000
000000
001F00
003FC0
007FC0
007BE0
00F1E0
00E0E0
00E0E0
01C0E0
01C0E0
01C0E0
01C0E0
0180E0
0380E0
0381E0
0383C0
039FC0
03BFC0
03BF80
039FC0
0703C0
0701E0
0701E0
0700E0
0700E0
0700E0
0700E0
0700E0
0701E0
0701E0
0F81E0
0F83C0
0FCFC0
0FFF80
0FFF80
0F7E00
0F0000
0F0000
0F0000
0F0000
0F0000
070000
060000
000000
000000
000000
ENDCHAR

STARTCHAR CODE226
ENCODING 226
SWIDTH 451 0
DWIDTH 24 0
BBX 24 48 0 -6
BITMAP
000000
000000
000000
000000
3FFFFE
3FFFFE
07FFFE
03C07E
03C03E
03C01E
03C01E
03C00E
03C00E
03C000
03C000
03C000
03C000
03C000
03C000
03C000
03C000
03C000
03C000
03C000
03C000
03C000
03C000
03C000
03C000
03C000
03C000
03C000
03C000
03C000
03C000
0FF000
3FFC00
3FFC00
000000
000000
000000
000000
000000
000000
000000
000000
000000
000000
ENDCHAR

STARTCHAR CODE227
ENCODING 227
SWIDTH 451 0
DWIDTH 24 0
BBX 24 48 0 -6
BITMAP
000000
000000
000000
000000
000000
000000
000000
000000
000000
000000
000000
000000
000000
000000
000000
00000C
03FFFC
07FFFC
07FFF8
0FFFF0
0E6300
0C6300
006700
00E700
00E700
00E700
00E700
00E700
01E700
01E700
01E700
03C700
03C700
07C700
07C760
0F87E0
0F87E0
0F87E0
0703C0
000000
000000
000000
000000
000000
000000
000000
000000
000000
ENDCHAR

STARTCHAR CODE228
ENCODING 228
SWIDTH 451 0
DWIDTH 24 0
BBX 24 48 0 -6
BITMAP
000000
000000
000000
000000
1FFFF0
1FFFF0
1FFFF0
1F01F0
0F00F0
0F8070
078070
07C030
03C030
03E000
01E000
01F000
00F000
00F800
007800
007C00
003C00
003C00
003C00
007800
007800
00F000
00F000
01E000
01E018
03C018
03C038
078038
078078
0F00F8
0FFFF8
1FFFF8
1FFFF8
1FFFF8
000000
000000
000000
000000
000000
000000
000000
000000
000000
000000
ENDCHAR

STARTCHAR CODE229
ENCODING 229
SWIDTH 451 0
DWIDTH 24 0
BBX 24 48 0 -6
BITMAP
000000
000000
000000
000000
000000
000000
000000
000000
000000
000000
000000
000000
000000
0001E0
000FF0
003FF0
007FF0
00FCE0
01FF00
01FF80
03E780
03C3C0
07C3C0
0783C0
0781C0
0701C0
0701C0
0701C0
0701C0
0701C0
0703C0
0783C0
078380
078780
07C780
03EF00
03FF00
01FE00
00F800
000000
000000
000000
000000
000000
000000
000000
000000
000000
ENDCHAR

STARTCHAR CODE230
ENCODING 230
SWIDTH 451 0
DWIDTH 24 0
BBX 24 48 0 -6
BITMAP
000000
000000
000000
000000
000000
000000
000000
000000
000000
000000
000000
000000
000000
000000
000000
00C0E0
01C0E0
01C1E0
03C1E0
03C1E0
03C1E0
03C1E0
03C1C0
03C1C0
03C3C0
03C3C0
0383C0
0383C0
038380
038380
078398
07C7B8
07FFF8
07FFF0
077FF0
0700E0
070000
0F0000
0F0000
0F0000
0F0000
0F0000
0F0000
0E0000
060000
000000
000000
000000
ENDCHAR

STARTCHAR CODE231
ENCODING 231
SWIDTH 451 0
DWIDTH 24 0
BBX 24 48 0 -6
BITMAP
000000
000000
000000
000000
000000
000000
000000
000000
000000
000000
000000
000000
000000
000000
000000
000060
00FFE0
01FFE0
03FFE0
03FFC0
033800
033800
003800
003800
007800
007000
007000
007000
00F000
00F000
00F000
00F000
00F000
00F180
00FB80
007F80
007F80
003F00
001E00
000000
000000
000000
000000
000000
000000
000000
000000
000000
ENDCHAR

STARTCHAR CODE232
ENCODING 232
SWIDTH 451 0
DWIDTH 24 0
BBX 24 48 0 -6
BITMAP
000000
000000
000000
000000
01FF80
01FF80
007E00
00FF00
03FFC0
07FFE0
0FBDF0
0F3CF0
1E3C78
1E3C78
3C3C3C
3C3C3C
3C3C3C
3C3C3C
3C3C3C
3C3C3C
3C3C3C
3C3C3C
3C3C3C
3C3C3C
3C3C3C
3C3C3C
3C3C3C
3C3C3C
1E3C78
1E3C78
0F3CF0
0FBDF0
07FFE0
03FFC0
00FF00
007E00
01FF80
01FF80
000000
000000
000000
000000
000000
000000
000000
000000
000000
000000
ENDCHAR

STARTCHAR CODE233
ENCODING 233
SWIDTH 451 0
DWIDTH 24 0
BBX 24 48 0 -6
BITMAP
000000
000000
000000
007E00
01FF80
03FFC0
07C3E0
0F81F0
0F00F0
0F00F0
1E0078
1E0078
1E0078
3E003C
3D81BC
3D81BC
3DC3BC
3DC3BC
3DFFBC
3DFFBC
3DFFBC
3DFFBC
3DC3BC
3DC3BC
3D81BC
3D81BC
3C003C
3C003C
3E007C
1E0078
1E0078
1E0078
0F00F0
0F00F0
0F81F0
07C3E0
03FFC0
01FF80
007E00
000000
000000
000000
000000
000000
000000
000000
000000
000000
ENDCHAR

STARTCHAR CODE234
ENCODING 234
SWIDTH 451 0
DWIDTH 24 0
BBX 24 48 0 -6
BITMAP
000000
000000
000000
01FF80
07FFE0
0FFFF0
1F81F8
1E0078
3C003C
3C003C
3C003C
78001E
78001E
78001E
78001E
78001E
78001E
78001E
78001E
78001E
7C003E
3C003C
3C003C
3E007C
1E0078
1F00F8
0F81F0
07C3E0
03E7C0
01E780
18E718
18E718
1CE738
1CE738
1FE7F8
1FE7F8
1FE7F8
1FE7F8
000000
000000
000000
000000
000000
000000
000000
000000
000000
000000
ENDCHAR

STARTCHAR CODE235
ENCODING 235
SWIDTH 451 0
DWIDTH 24 0
BBX 24 48 0 -6
BITMAP
000000
000000
000000
000000
003E00
007F00
00FF80
00FF80
00F7C0
00E3C0
00F1E0
0070E0
0078E0
003860
003C60
001E00
000E00
003F00
00FF00
01FF80
01E780
03C380
03C3C0
0783C0
0781C0
0781C0
0701C0
0701C0
0701C0
0701C0
0703C0
0783C0
0783C0
078380
078780
03CF00
03FF00
01FE00
00FC00
000000
000000
000000
000000
000000
000000
000000
000000
000000
ENDCHAR

STARTCHAR CODE236
ENCODING 236
SWIDTH 451 0
DWIDTH 24 0
BBX 24 48 0 -6
BITMAP
000000
000000
000000
000000
000000
000000
000000
000000
000000
000000
000000
000000
0FC3F0
1FE7F8
3EE77C
3C7E3C
787E1E
783C1E
703C0E
703C0E
703C0E
703C0E
703C0E
703C0E
703C0E
783C1E
787E1E
3C7E3C
3EE77C
1FE7F8
0FC3F0
000000
000000
000000
000000
000000
000000
000000
000000
000000
000000
000000
000000
000000
000000
000000
000000
000000
ENDCHAR

STARTCHAR CODE237
ENCODING 237
SWIDTH 451 0
DWIDTH 24 0
BBX 24 48 0 -6
BITMAP
000000
000000
000000
000000
000000
000000
000000
000000
0000C0
0001E0
0001E0
0001E0
0003C0
0003C0
000380
007F00
01FF80
03F7C0
07CFE0
078FE0
0F0EF0
0F1CF0
0E1C70
0E1C70
0E3870
0E3870
0E3870
0E7070
0F70F0
0F70F0
07E1E0
07E3E0
03EFC0
01FF80
01FE00
038000
078000
078000
0F8000
0F0000
0F0000
060000
000000
000000
000000
000000
000000
000000
ENDCHAR

STARTCHAR CODE238
ENCODING 238
SWIDTH 451 0
DWIDTH 24 0
BBX 24 48 0 -6
BITMAP
000000
000000
000000
000000
000000
000000
000000
000000
000000
000000
000000
000000
000000
000000
000000
01FF80
07FFE0
0FFFF0
1FC0F8
1F0038
1E0000
1E0000
1F0000
0F8000
07FF80
07FFC0
0FFFC0
0FFF80
1F0000
1E0000
1E0000
1E0000
1F001C
0F807C
0FE1F8
07FFF0
03FFE0
00FF80
000000
000000
000000
000000
000000
000000
000000
000000
000000
000000
ENDCHAR

STARTCHAR CODE239
ENCODING 239
SWIDTH 451 0
DWIDTH 24 0
BBX 24 48 0 -6
BITMAP
000000
000000
000000
000000
000000
00FF00
03FFC0
07FFE0
0FC3F0
0F00F0
1E0078
1E0078
1C0038
1C0038
1C0038
1C0038
1C0038
1C0038
1C0038
1C0038
1C0038
1C0038
1C0038
1C0038
1C0038
1C0038
1C0038
1C0038
1C0038
1C0038
1C0038
1C0038
1C0038
1C0038
1C0038
1C0038
1C0038
1C0038
1C0038
1C0038
1C0038
000000
000000
000000
000000
000000
000000
000000
ENDCHAR

STARTCHAR CODE240
ENCODING 240
SWIDTH 451 0
DWIDTH 24 0
BBX 24 48 0 -6
BITMAP
000000
000000
000000
000000
000000
000000
000000
000000
000000
000000
000000
000000
000000
000000
3FFFFC
3FFFFC
3FFFFC
000000
000000
000000
000000
000000
3FFFFC
3FFFFC
3FFFFC
000000
000000
000000
000000
000000
3FFFFC
3FFFFC
3FFFFC
000000
000000
000000
000000
000000
000000
000000
000000
000000
000000
000000
000000
000000
000000
000000
ENDCHAR

STARTCHAR CODE241
ENCODING 241
SWIDTH 451 0
DWIDTH 24 0
BBX 24 48 0 -6
BITMAP
000000
000000
000000
000000
003800
003800
003800
003800
003800
003800
003800
003800
003800
003800
003800
3FFFFC
3FFFFC
3FFFFC
003800
003800
003800
003800
003800
003800
003800
003800
003800
003800
000000
000000
000000
000000
3FFFFC
3FFFFC
3FFFFC
000000
000000
000000
000000
000000
000000
000000
000000
000000
000000
000000
000000
000000
ENDCHAR

STARTCHAR CODE242
ENCODING 242
SWIDTH 451 0
DWIDTH 24 0
BBX 24 48 0 -6
BITMAP
000000
000000
000000
000000
000000
000000
000000
000000
000000
000000
1E0000
1F8000
1FE000
07F800
01FE00
007F80
001FE0
0007F8
0001FC
00007C
0001FC
0007F8
001FE0
007F80
01FE00
07F800
1FE000
1F8000
1E0000
000000
000000
000000
3FFFFC
3FFFFC
3FFFFC
000000
000000
000000
000000
000000
000000
000000
000000
000000
000000
000000
000000
000000
ENDCHAR

STARTCHAR CODE243
ENCODING 243
SWIDTH 451 0
DWIDTH 24 0
BBX 24 48 0 -6
BITMAP
000000
000000
000000
000000
000000
000000
000000
000000
000000
000000
000078
0001F8
0007F8
001FE0
007F80
01FE00
07F800
1FE000
3F8000
3E0000
3F8000
1FE000
07F800
01FE00
007F80
001FE0
0007F8
0001F8
000078
000000
000000
000000
3FFFFC
3FFFFC
3FFFFC
000000
000000
000000
000000
000000
000000
000000
000000
000000
000000
000000
000000
000000
ENDCHAR

STARTCHAR CODE244
ENCODING 244
SWIDTH 451 0
DWIDTH 24 0
BBX 24 48 0 -6
BITMAP
000000
000000
000000
000000
000000
000000
000000
003C00
007E00
00FE00
00FE00
00FE00
00DC00
00C000
00C000
00C000
00C000
00E000
00E000
00E000
00E000
00E000
00E000
00E000
00E000
00E000
00E000
00E000
00E000
00E000
00F000
00F000
00F000
00F000
00F000
00F000
00F000
007000
007000
007000
007800
007800
007800
007800
007800
007800
007800
007800
ENDCHAR

STARTCHAR CODE245
ENCODING 245
SWIDTH 451 0
DWIDTH 24 0
BBX 24 48 0 -6
BITMAP
003C00
003C00
003C00
003C00
003C00
003C00
003C00
001C00
001C00
001C00
001E00
001E00
001E00
001E00
001E00
001E00
001E00
000E00
000E00
000E00
000E00
000E00
000E00
000E00
000E00
000E00
000E00
000E00
000E00
000E00
000600
000600
000600
000600
007600
00FE00
00FE00
00FE00
00FC00
007800
000000
000000
000000
000000
000000
000000
000000
000000
ENDCHAR

STARTCHAR CODE246
ENCODING 246
SWIDTH 451 0
DWIDTH 24 0
BBX 24 48 0 -6
BITMAP
000000
000000
000000
000000
000000
000000
000000
000000
001C00
003E00
003E00
003E00
003E00
001C00
000000
000000
000000
000000
000000
000000
000000
3FFFFC
3FFFFC
3FFFFC
000000
000000
000000
000000
000000
000000
000000
001C00
003E00
003E00
003E00
003E00
001C00
000000
000000
000000
000000
000000
000000
000000
000000
000000
000000
000000
ENDCHAR

STARTCHAR CODE247
ENCODING 247
SWIDTH 451 0
DWIDTH 24 0
BBX 24 48 0 -6
BITMAP
000000
000000
000000
000000
000000
000000
000000
000000
000000
000000
000000
000000
000000
000000
000000
03E00C
0FF81C
1FFE7C
1FFFF8
3E7FF8
381FF0
3007C0
000000
000000
03E00C
0FF81C
1FFE7C
1FFFF8
3E7FF8
381FF0
3007C0
000000
000000
000000
000000
000000
000000
000000
000000
000000
000000
000000
000000
000000
000000
000000
000000
000000
ENDCHAR

STARTCHAR CODE248
ENCODING 248
SWIDTH 451 0
DWIDTH 24 0
BBX 24 48 0 -6
BITMAP
000000
000000
003C00
00FF00
01FF80
01E780
03C3C0
0381C0
0381C0
03C3C0
01E780
01FF80
00FF00
003C00
000000
000000
000000
000000
000000
000000
000000
000000
000000
000000
000000
000000
000000
000000
000000
000000
000000
000000
000000
000000
000000
000000
000000
000000
000000
000000
000000
000000
000000
000000
000000
000000
000000
000000
ENDCHAR

STARTCHAR CODE249
ENCODING 249
SWIDTH 451 0
DWIDTH 24 0
BBX 24 48 0 -6
BITMAP
000000
000000
000000
000000
000000
000000
000000
000000
000000
000000
000000
000000
000000
000000
000000
000000
000000
007E00
01FF80
01FF80
03FFC0
03FFC0
03FFC0
03FFC0
03FFC0
03FFC0
01FF80
01FF80
007E00
000000
000000
000000
000000
000000
000000
000000
000000
000000
000000
000000
000000
000000
000000
000000
000000
000000
000000
000000
ENDCHAR

STARTCHAR CODE250
ENCODING 250
SWIDTH 451 0
DWIDTH 24 0
BBX 24 48 0 -6
BITMAP
000000
000000
000000
000000
000000
000000
000000
000000
000000
000000
000000
000000
000000
000000
000000
000000
000000
000000
000000
003C00
007E00
00FF00
00FF00
00FF00
00FF00
007E00
003C00
000000
000000
000000
000000
000000
000000
000000
000000
000000
000000
000000
000000
000000
000000
000000
000000
000000
000000
000000
000000
000000
ENDCHAR

STARTCHAR CODE251
ENCODING 251
SWIDTH 451 0
DWIDTH 24 0
BBX 24 48 0 -6
BITMAP
000FFF
000FFF
000FFF
001C00
001C00
001C00
001C00
001C00
003C00
003800
003800
003800
003800
007800
007000
007000
007000
007000
007000
00F000
00E000
00E000
18E000
18E000
39E000
39C000
79C000
7DC000
FDC000
FDC000
DFC000
DF8000
1F8000
0F8000
0F8000
0F8000
0F0000
0F0000
0F0000
070000
060000
060000
000000
000000
000000
000000
000000
000000
ENDCHAR

STARTCHAR CODE252
ENCODING 252
SWIDTH 451 0
DWIDTH 24 0
BBX 24 48 0 -6
BITMAP
000000
000000
000000
000000
01FE00
03FF00
07FF80
07E780
01C380
01C380
01C380
01C380
01C380
01C380
01C380
01C380
01C380
01C380
01C380
03E7C0
03E7C0
000000
000000
000000
000000
000000
000000
000000
000000
000000
000000
000000
000000
000000
000000
000000
000000
000000
000000
000000
000000
000000
000000
000000
000000
000000
000000
000000
ENDCHAR

STARTCHAR CODE253
ENCODING 253
SWIDTH 451 0
DWIDTH 24 0
BBX 24 48 0 -6
BITMAP
000000
000000
000000
00FC00
01FE00
03FF00
03EF00
03E700
03E700
01C700
000F00
001E00
003E00
007C00
00F800
00F300
01E300
01C700
01FF00
01FF00
01FF00
000000
000000
000000
000000
000000
000000
000000
000000
000000
000000
000000
000000
000000
000000
000000
000000
000000
000000
000000
000000
000000
000000
000000
000000
000000
000000
000000
ENDCHAR

STARTCHAR CODE254
ENCODING 254
SWIDTH 451 0
DWIDTH 24 0
BBX 24 48 0 -6
BITMAP
000000
000000
000000
000000
000000
000000
000000
000000
03FFC0
03FFC0
03FFC0
03FFC0
03FFC0
03FFC0
03FFC0
03FFC0
03FFC0
03FFC0
03FFC0
03FFC0
03FFC0
03FFC0
03FFC0
03FFC0
03FFC0
03FFC0
03FFC0
03FFC0
03FFC0
03FFC0
03FFC0
03FFC0
03FFC0
03FFC0
03FFC0
03FFC0
03FFC0
03FFC0
03FFC0
000000
000000
000000
000000
000000
000000
000000
000000
000000
ENDCHAR

STARTCHAR CODE255
ENCODING 255
SWIDTH 451 0
DWIDTH 24 0
BBX 24 48 0 -6
BITMAP
000000
000000
000000
000000
000000
000000
000000
000000
000000
000000
000000
000000
000000
000000
000000
000000
000000
000000
000000
000000
000000
000000
000000
000000
000000
000000
000000
000000
000000
000000
000000
000000
000000
000000
000000
000000
000000
000000
000000
000000
000000
000000
000000
000000
000000
000000
000000
000000
ENDCHAR
ENDFONT
